<?xml version="1.0" encoding="UTF-8"?>
<!-- Created with Inkscape (http://www.inkscape.org/) -->
<svg width="185.67mm" height="47.103mm" version="1.1" viewBox="0 0 185.67 47.103" xmlns="http://www.w3.org/2000/svg">
 <g transform="translate(-20.487 -125.14)" stroke-width="1.0135">
  <g fill="#0b3b6a">
   <path d="m112.03 158.01c-0.0396 3e-3 -0.17421 0.0115-0.20983 0.0115-0.0396 0-0.11086 0.0316-0.11086 0.0316s-0.0316-0.0115-0.0634-0.023c-0.0198-0.0172-0.15439 0.0115-0.21377 0.0172-0.0633 9e-3 -0.16232 0.0144-0.24149-3e-3 -0.0831-0.0201-0.27315-0.0514-0.34839-0.0316-0.0712 0.0201-0.29691 0.0201-0.4038 0.0201-0.10293 0-0.31671-0.023-0.4236-0.0144-0.1069 0.0144-0.2138 0.0201-0.26922 9e-3 -0.0554-0.0115-0.1148-0.0356-0.14648-0.0115-0.0276 0.023-0.0515-0.0356-0.1148-3e-3 -0.0633 0.0287-0.0712 0.023-0.13856 9e-3 -0.0594-9e-3 -0.0673-0.0172-0.11877-0.023-0.0515-3e-3 -0.0316-0.0287-0.0791-0.0514-0.0515-0.0172-0.1069 0.023-0.15442 0.0911-0.0515 0.0672-0.33254 0.45922-0.43152 0.54633-0.10293 0.0871-0.19004 0.20196-0.24546 0.26516-0.0554 0.0595-0.14252 0.1899-0.17024 0.24535-0.0238 0.0595-0.099 0.18213-0.17418 0.18616-0.0752 9e-3 -0.0515-0.0712-0.11877-0.0172-0.0673 0.0555-0.41568 0.37609-0.50674 0.41964-0.087 0.0437-0.31275 0.15054-0.35233 0.2258-0.0357 0.0753-0.10294 0.1741-0.13066 0.19794-0.0198 0.023-0.41964 0.33254-0.49486 0.34443-0.0752 0.0115-0.23753 0.0871-0.32068 0.10285-0.0791 0.0201-0.15439 0.0672-0.21377 0.079-0.0673 9e-3 -0.68489 0.0951-0.80366 0.13072-0.11876 0.0356-0.28108 0.0672-0.36026 0.11865-0.0791 0.0474-0.0791 0.0437-0.15045 0.0356-0.0673-9e-3 -0.43548-9e-3 -0.57404 0.0555-0.13462 0.0632-0.34838 0.0911-0.44735 0.13847-0.10294 0.0437-0.26922 0.0753-0.34443 0.0635-0.0791-0.0172-0.54237-0.0474-0.63739-0.0316-0.0831 0.0115-0.15438 0.023-0.20983 0.0356-0.0594 0.0115-0.12669 0.0316-0.16232 0.0115-0.0396-0.0144-0.384-0.0554-0.45131-0.0474-0.0673 9e-3 -0.16628 0-0.2217 0-0.0594 0-0.23359-0.0316-0.30088-0.0635-0.0713-0.0287-0.32463-0.0356-0.37609-0.0514-0.0476-9e-3 -0.0752 0.0356-0.15045 0.0172-0.0713-0.023-0.0713-0.0595-0.12273-0.0712-0.0515-0.0115-0.15045-0.023-0.22963-0.0356-0.0713-0.0115-0.18607-0.0287-0.26129-0.0316-0.0791-9e-3 -0.10293-0.0632-0.16628-0.0753-0.0633-0.0115-0.11083-0.0437-0.19004-0.0356-0.0831 3e-3 -0.2019 0.0316-0.26525 0-0.0633-0.0316-0.32462-0.15427-0.4236-0.17007-0.10294-0.0201-0.33254-0.15054-0.45131-0.16634-0.11877-0.0201-0.16232 3e-3 -0.2415-0.0514-0.0831-0.0554-0.12273-0.0753-0.16231-0.083-0.0357-3e-3 -0.60571-0.36026-0.71656-0.43151-0.1148-0.0672-0.21377-0.0991-0.24546-0.13473-0.0317-0.0396-0.21377-0.22954-0.28108-0.30088-0.0673-0.0672-0.15045-0.16231-0.24149-0.22954-0.095-0.0713-0.0792-0.0396-0.10294-0.13474-0.0238-0.087 0.0158-0.0554-0.0792-0.17409-0.095-0.11865-0.19398-0.18616-0.25336-0.28097-0.0673-0.0911-0.12273-0.18214-0.14649-0.25338-0.0238-0.0753-0.0554-0.083-0.095-0.13072-0.0356-0.0477-0.0554-0.0316-0.0554-0.083 0-0.0474-0.0118-0.0287-0.0435-0.0753-0.0317-0.0437 0.0118 0 8e-3 -0.083-8e-3 -0.0911 0.0118-0.13473-0.0871-0.0951-0.10294 0.0356-0.16232 0.0672-0.24546 0.0871-0.0792 0.0172-0.18608 0-0.289 0.023-0.095 0.023-0.15835 0.0115-0.21773 0.023-0.0554 0.0172-0.0554-0.0316-0.0871-0.0356-0.0317-3e-3 -0.16628 3e-3 -0.20587 0.0115-0.0356 9e-3 -0.13855-0.023-0.13855-0.023s-0.0673 0.023-0.13063-9e-3c-0.0594-0.0287-0.0712-0.0287-0.12273-0.0514-0.0475-0.0144-0.19398-0.083-0.27318-0.0595-0.0831 0.023-0.13856 3e-3 -0.20191 0.023-0.0633 0.0201-0.20983 0.0287-0.26128 0.0287-0.0515 0-0.13066 0.0172-0.15045 0.0437-0.0158 0.023-0.0871 0.0712-0.11084 0.0871-0.0276 0.0115-0.0317-0.0316-0.13459-0.0396-0.099-9e-3 -0.15439 9e-3 -0.22963-0.0316-0.0752-0.0356-0.095-0.0356-0.17418-0.0356-0.0752 0-0.19398-0.0554-0.24149 0.0201 0 0.0991-0.0118 0.24937 0.10293 0.25741 0.11087 0.0115 0.12273 0.0514 0.26129 0.16634 0.13459 0.11089 0.19794 0.15054 0.25732 0.23356 0.0633 0.0871 0.0752 0.16232 0.16628 0.0871 0.0871-0.0712 0.20191 3e-3 0.26525-0.0115 0.0633-0.0115 0.0871-0.0437 0.18211-0.0753 0.095-0.0287 0.13856-0.0474 0.28108-0.0396 0.14253 3e-3 0.24942-0.0172 0.28108 0.0316 0.0317 0.0396 0.13856 0.11089 0.19004 0.0595 0.0594-0.0514 0.0673-0.023 0.1148-0.0316 0.0475-3e-3 0.20191 9e-3 0.28505 9e-3 0.0831 0 0.10293 0 0.15835-0.0201 0.0554-0.0172 8e-3 0.0316 0.0554 0.0753 0.0515 0.0437 0.1148 0.15427 0.19794 0.19794 0.091 0.0474 0.0792 0.11865 0.091 0.14652 0.0118 0.023 0.0317 0.10687 0.12273 0.24534 0.095 0.13847 0.13065 0.1899 0.21773 0.28499 0.0871 0.0911 0.095 0.17811 0.2019 0.24534 0.1069 0.0595 0.14649 0.0356 0.17418 0.0356 0.0276 0 0.11084 0.0555 0.18212 0.11865 0.0673 0.0635 0.2019 0.11865 0.2019 0.11865l0.1069 0.0712 0.0713 0.12267 0.13459 0.0595 0.095 0.10687s0.17419 0.0287 0.22963 0.0514c0.0594 0.023 0.21774 0.0991 0.24546 0.13847 0.0317 0.0396 8e-3 0.13072 0.0752 0.15456 0.0673 0.023 0.2296 0.1267 0.28108 0.11865 0.0515-9e-3 0.12273 0.023 0.15045 0.0316 0.0238 3e-3 0.17025 0.0514 0.19001 0.087 0.0238 0.0397 0.095 0.11089 0.16628 0.0988 0.0673-0.0115 0.5305 0.16231 0.62948 0.17036 0.099 3e-3 0.41172 0.0793 0.44339 0.0672 0.0276-0.0115 0.11084 0.0356 0.16232 0.0713 0.0476 0.0396 0.29296 0.0474 0.32859 0.0474 0.0396 0 0.24546 0.0287 0.28108 0.0477 0.0357 0.0201 0.11877 0.0632 0.17025 0.0554 0.0515-3e-3 0.49882 0.0672 0.56216 0.087 0.0633 0.0201 0.36818 0.0397 0.4434 0.0514 0.0712 0.0115 0.36423 0.0316 0.41173 0.0316 0.0436 0 0.0515 0.0672 0.095 0.0672 0.0554 0 0.22963 0.0115 0.27711 0.0201 0.0515 9e-3 0.24943-0.0115 0.3088-9e-3 0.0554 9e-3 0.22566 0.0554 0.28504 0.0316 0.0594-0.023 0.099-0.0474 0.15836-0.0911 0.0554-0.0477 0.12669-0.0172 0.17418-0.0201 0.0396-3e-3 0.75219-0.0672 0.82345-0.083 0.0633-0.0115 0.27315-0.0554 0.34838-0.0672 0.0752-0.0115 0.14253-0.0514 0.16628-0.0514 0.0276 0 0.0198 0.0396 0.1267 0.0201 0.1069-0.0201 0.30879-0.0672 0.42756-0.0753 0.12273-9e-3 0.15836-0.0437 0.25336-0.0951 0.091-0.0474 0.12273-0.0951 0.18608-0.0911 0.0633 9e-3 0.091 0.0287 0.13065 0.0201 0.0476-9e-3 0.56217-0.0911 0.64926-0.14249 0.091-0.0595 0.32464-0.0911 0.4236-0.18214 0.10294-0.0911 0.34444-0.18616 0.41569-0.22954 0.0673-0.0437 0.3088-0.18616 0.3761-0.23356 0.0594-0.0437 0.19794-0.1109 0.25732-0.15054 0.0633-0.0356 0.22963-0.10285 0.29295-0.1583 0.0633-0.0595 0.15046-0.11491 0.2415-0.19794 0.0831-0.079 0.25732-0.18989 0.3365-0.2416 0.0752-0.0514 0.14253-0.1425 0.20191-0.20599 0.0673-0.0632 0.16628-0.10687 0.22963-0.16634 0.0633-0.0635 0.0791-0.0635 0.11086-0.0753 0.0316-0.0115 0.13066-0.0672 0.17024-0.1583 0.0357-0.087 0.1346-0.11089 0.20191-0.21776 0.0594-0.10687 0.17024-0.21374 0.20587-0.27321 0.0276-0.0635 0.0118 3e-3 0.0752 0 0.0633-9e-3 0.27315 0.023 0.33255 0 0.0633-0.0287 0.13063-0.0201 0.16232 3e-3 0.0316 0.0287 0.0673 0 0.12273-0.023 0.0554-0.023 0.39192 0.0437 0.53048 3e-3 0.14649-0.0356 0.24943-0.0115 0.30088-3e-3 0.0515 3e-3 0.14253 0.0911 0.21774 0.0911 0.0752 0 0.099-0.0172 0.15045-0.0356 0.0515-0.0144 0.13066-0.0356 0.17418-0.10687 0.0316-0.0672 0.15835-0.1425 0.19398-0.20599 0.0357-0.0635 0.10293-0.11491 0.15835-0.14249 0.0515-0.023 0.0752-0.0753 0.0831-0.10285 4e-3 -0.0356 0.0396-0.0555 0.0554-0.0911 0.0118-0.0356 0.0357-0.0672 0-0.0988-0.0436-0.0316-0.10294-3e-3 -0.14649 0"/>
   <path d="m101.73 159.25c-0.11483 0.0172-0.27318-0.0356-0.32464-0.0514-0.0436-0.0172-0.13063 0-0.18211-9e-3 -0.0594-3e-3 -0.0515-0.0437-0.13066-0.0595-0.0831-9e-3 -0.13855-0.0172-0.19794-3e-3 -0.0554 0.0172-0.0673 0.0316-0.13065-0.023-0.0633-0.0555-0.13856-0.0474-0.21774-0.0287-0.0831 0.0287-0.13065-3e-3 -0.22169 0-0.095 9e-3 -0.2336 0.0356-0.26922-0.0115-0.0396-0.0396-0.0436 0.0201-0.10293-0.0672-0.0555-0.087-0.11087-0.0753-0.18608-0.083-0.0791-3e-3 -0.0118-0.0287-0.087-0.0477-0.0752-0.0144-0.095 0.0287-0.17024-0.0316-0.0713-0.0555-0.11087-0.0672-0.1346-0.1267-0.0316-0.0554-8e-3 -0.0753-0.13462-0.11491-0.11876-0.0356-0.13063-0.0514-0.19794-0.079-0.0633-0.0356-0.0752-0.023-0.1148-0.0951-0.0357-0.0753-0.0158-0.0712-0.1148-0.16231-0.10293-0.0951-0.0238-0.10285-0.14648-0.15054-0.1148-0.0514-0.099-0.083-0.14649-0.10687-0.0515-0.023-0.16628-0.0514-0.23359-0.0201-0.0712 0.0316-0.0752 0.0753-0.16628 0.0316-0.095-0.0437-0.15046-0.0555-0.22567-0.0437-0.0752 0.0115-0.0554 0.0316-0.20587 9e-3 -0.15042-0.0287-0.17021 0.0316-0.21773-0.0437-0.0475-0.0753-0.15045-0.0201-0.14252 0.023 0.0238 0.0554 0.10293 0.13847 0.16628 0.18214 0.0633 0.0437 0.11083 0.0514 0.15045 0.11865 0.0396 0.0635 0.18211 0.26143 0.26129 0.3009 0.0831 0.0356 0.17024 0.13474 0.24149 0.20972 0.0752 0.0753 0.28504 0.3088 0.3563 0.32859 0.0752 0.0201 0.23753 0.19392 0.33255 0.21375 0.091 0.0201 0.43152 0.26114 0.49882 0.26114 0.0712 0 0.13856 0.0201 0.2217 0.0396 0.0791 0.0172 0.17024 0.12267 0.22566 0.13474 0.0594 0.0115 0.27315 0.0951 0.36423 0.0991 0.0949 9e-3 0.26128 0.0514 0.30878 0.0712 0.0396 0.0172 0.099 0.0753 0.15442 0.0595 0.0554-9e-3 0.15438 0.083 0.24149 0.0672 0.091-0.0201 0.18607 0.0144 0.27315 0.0201 0.091 9e-3 0.3088 0.0713 0.38005 0.0871 0.0673 0.023 0.13856 0.0712 0.20191 0.0396 0.0633-0.0287 0.13063 0 0.26128-9e-3 0.13066 0 0.28901 9e-3 0.3761 9e-3 0.091 0 0.14649 9e-3 0.2138-9e-3 0.0673-0.0201 0.13065-0.0555 0.17814-0.0595 0.0475-3e-3 0.0276 0.0514 0.0633 0.0595 0.0357 0 0.25732 0.0672 0.38798 0.0144 0.13063-0.0514 0.23356-0.079 0.26129-0.10285 0.0316-0.0172 0.087-0.0356 0.12669-0.0316 0.0357 9e-3 0.091 0 0.16231-0.0316 0.0673-0.0396 0.2217-0.0672 0.28505-0.0753 0.0594-9e-3 0.11483-0.0287 0.14649-0.0437 0.0396-0.023 0.087-0.0316 0.12669-0.0555 0.0476-0.0172 0.16628-0.0356 0.26525-0.083 0.099-0.0396 0.18608-0.0753 0.24546-0.11865 0.0633-0.0437 0.10293-0.0316 0.14648-0.0437 0.0436-0.0172 0.1148-0.0635 0.1148-0.0635s0.13066 0.0356 0.18608 0.023c0.0554-0.0172 0.0436-0.0172 0.14252-0.0672 0.099-0.0554 0.13462-0.087 0.17025-0.0951 0.0276-3e-3 0.14252-0.11089 0.21379-0.14249 0.0752-0.0287 0.095-0.0437 0.095-0.0437s0.087-0.0514 0.11877-0.0712c0.0396-0.0201 0.0276-0.023 0.11876-0.0672 0.095-0.0437 0.13462-0.0287 0.20587-0.0672 0.0752-0.0397 0.13856-0.0514 0.22963-0.10687 0.099-0.0555 0.22169-0.0753 0.29691-0.13072 0.0712-0.0555 0.1069-0.10687 0.12273-0.0555 0.0198 0.0514 0.0158 0.1109 0.0871 0.083 0.0752-0.0316 0.13066-0.0316 0.19004-0.11491 0.0555-0.083 0.0752-0.13072 0.10293-0.17812 0.0357-0.0555 0.091-0.0555 0.1267-0.079 0.0396-0.023 0.0554-0.0514 0.0633-0.087 8e-3 -0.0356 0.0396-0.0672 0.0712-0.11865 0.0436-0.0477 0.0831-0.0793 0.091-0.1425 4e-3 -0.0635-0.0158-0.0951-0.0436-0.0951-0.0316 0-0.0633 0.0287-0.0871 0.0437-0.0238 0.0201-0.0198 0.0201-0.0554-3e-3 -0.0396-0.023-0.0752-0.0316-0.12669-9e-3 -0.0515 0.0287-0.12273 0.0437-0.19401 0.0555-0.0752 0.0172-0.0791 0.0437-0.12273 0-0.0436-0.0437-0.1069 9e-3 -0.1069 9e-3s-0.0515 0.0115-0.0712-0.023c-0.0316-0.0396-0.16232-0.0437-0.20587-0.0201-0.0357 0.023-0.14252 0.0635-0.19401 0.0871-0.0475 0.023-0.25335 0.10285-0.34046 0.11089-0.087 9e-3 -0.17421 0.083-0.26128 0.11491-0.087 0.0287-0.26919 0.079-0.31275 0.13474-0.0476 0.0595-0.0476 0.0712-0.15045 0.11492-0.1069 0.0437-0.19004 0.10284-0.26525 0.15053-0.0752 0.0396-0.0238 0.0712-0.1148 0.0287-0.095-0.0396-0.15439-0.13071-0.38401 0.023-0.22963 0.14651-0.28108 0.17811-0.31671 0.20196-0.0396 0.0287-0.0831 0.0201-0.11087-9e-3 -0.0198-0.023-0.0594 0.0115-0.12272 0-0.0633-0.0115-0.0633 0.079-0.13856 0.0672-0.0752-0.0115-0.11877-0.0287-0.22963 0-0.10293 0.0287-0.25732 0.0753-0.33255 0.13072-0.0752 0.0514-0.26129 3e-3 -0.30484 0.0437-0.0396 0.0356-0.2019 0.087-0.24545 0.0672-0.0476-0.0201-0.1267-0.0201-0.21377 3e-3 -0.0871 0.0287-0.23359 0.0287-0.34047 0.0287-0.1069 0-0.13856-9e-3 -0.21773 0-0.0831 9e-3 -0.0594 0.023-0.15836-0.0514-0.099-0.0753-0.0831-0.0474-0.2019-0.0396"/>
   <path d="m92.772 157.02c0.0475 0.0115 0.11084-0.0474 0.16232-0.0316 0.0554 0.0115 0.091 3e-3 0.21773 0.0172 0.12273 0.0172 0.33651-0.023 0.38797-3e-3 0.0594 0.0201 0.0673 0.0396 0.1346 0.0753 0.0713 0.0356 0.0752-0.0437 0.15045-0.0287 0.0752 0.0115 0.15042 9e-3 0.22566-0.0172 0.0792-0.0201 0.099-0.0287 0.15439-0.0316 0.0554-9e-3 0.19794-0.0555 0.2217-9e-3 0.0198 0.0437 0.0633 0.0201 0.11083 0.0474 0.0475 0.0316 0.0712 0.0172 0.1069-0.0115 0.0356-0.0287 0.18608-9e-3 0.25732-0.023 0.0673-0.0115 0.19794-0.0474 0.26129-0.0144 0.0633 0.023 0.0713 0.023 0.10293 0.0595 0.0356 0.0356 0.0911 0.0115 0.13066-9e-3 0.0435-0.0201 0.0792-0.0201 0.1346-0.0115 0.0554 3e-3 0.12669-0.0287 0.21773-0.0356 0.091-3e-3 0.38006-0.0287 0.4434 0.0115 0.0634 0.0437 0.0792 0.0437 0.17815 0.0356 0.099-9e-3 0.43548-0.0396 0.48298-0.0201 0.0515 0.0201 0.0554 0.083 0.14649 0.0753 0.0871-9e-3 0.70469-0.083 0.75615-0.0474 0.0555 0.0356 0.0238 0.0474 0.095 0.0474 0.0752 0 0.12669 0 0.19794 0.023 0.0673 0.0144 0.24546-0.0712 0.34838-0.10687 0.10294-0.0316 0.0831-0.0201 0.11877-0.0396 0.0357-0.0201 0.0436-0.0437 0.0436-0.11491 0-0.0793 0.0238-0.0712 0.0515-0.1267 0.0276-0.0554 0.0475-0.0712 0.0554-0.12267 8e-3 -0.0595 0.0316-0.0991 0.0554-0.15829 0.0198-0.0632 0.0357-0.0437 0.10687-0.12669 0.0633-0.083-0.0396-0.16634-0.099-0.14652-0.0633 0.0201-0.099 0.0396-0.17814 0.0632-0.0831 0.0316-0.2138 0-0.28901-9e-3 -0.0791-3e-3 -0.19794 9e-3 -0.28504 0.0397-0.091 0.0287-0.85512-0.023-0.89867-9e-3 -0.0396 0.0115-0.0317 0.0287-0.0752 0.0595-0.0396 0.0356-0.0871-0.0115-0.1069-0.0595-0.0198-0.0474-0.18211-0.0115-0.26922 0.0396-0.095 0.0474-0.20587 0.0201-0.27711 0.0287-0.0713 3e-3 -0.0713 0.0316-0.0713-0.0396 0-0.0753-0.0238-0.0991-0.0633-0.21776-0.0435-0.11492-0.0198-0.14652-0.0118-0.22179 0.0118-0.0753 0.0158-0.083 0-0.17036-0.0118-0.0911-0.0198-0.15829-0.0515-0.21374-0.0356-0.0555-0.0317-0.11089-8e-3 -0.15427 0.0198-0.0514 0.0198-0.10687 0.0198-0.20599 0-0.0951-0.0436-0.0753-0.0633-0.13071-0.0198-0.0555-0.0317-0.0871-0.0515-0.12267-0.0276-0.0356-0.0317-0.11089 0.0238-0.17812 0.0554-0.0712 0.0435-0.20196 0.0158-0.26516-0.0317-0.0635-0.0673-0.12267-0.091-0.19794-0.0276-0.079-0.0356-0.1267 8e-3 -0.19392 0.0435-0.0672 4e-3 -0.0871 0.0435-0.17812 0.0317-0.0911 0.0436-0.0712 0.0594-0.12669 0.0118-0.0555 8e-3 -0.0632 0.0435-0.0911 0.0317-0.023 0.0712-0.0595 0.1148-0.11089 0.0396-0.0595 0.0673-0.1267 0.12669-0.1425 0.0515-0.0115 0.0792-0.083 0.16232-0.0437 0.0871 0.0316 0.34838-0.0396 0.39985-0.0287 0.0554 3e-3 0.0831-0.0316 0.11876-0.0474 0.0317-0.0115 0.0594-0.079 0.1346-0.0712 0.0792 9e-3 0.15438-0.0988 0.16628-0.13847 0.0118-0.0437 0.099-0.11865 0.20983-0.22954 0.11086-0.1109 0.0594 0.0514 0.0316 0.11491-0.0238 0.0712 0.0158 0.083 0.0158 0.15054 0 0.0672-0.0198 0.18989-0.0158 0.24936 0.0118 0.0514 0.0118 0.15054 0.0158 0.21776 4e-3 0.0672-0.091 0.0396-0.13856 0.0396-0.0475 0-0.095-0.0437-0.15438-0.0144-0.0633 0.0287-0.0712 0.0514-0.11084 0.10687-0.0317 0.0554-0.0118 0.12267 0 0.11864 0.0633-0.0115 0.0435 0.0316 0.0317 0.0991-0.0118 0.0595 8e-3 0.11865 0.0554 0.17409 0.0475 0.0595 0.0831 0.0172 0.15045 9e-3 0.0673-9e-3 0.0752-0.0172 0.15042-9e-3 0.0791 9e-3 0.0276 0.0201 0.0357 0.0793 8e-3 0.0555-0.0475 0.0396-0.0475 0.0871 0 0.0474 8e-3 0.083 0.0554 0.12669 0.0475 0.0396 0.19794 0.079 0.26525 0.0595 0.0712-0.0201 0.0515-0.10285 0.0712-0.15427 0.0198-0.0437 0.0515-0.0991 0.0436-0.17812-4e-3 -0.0753 0.0118-0.12267-0.0158-0.20598-0.0276-0.083 8e-3 -0.25741 8e-3 -0.32463 0-0.0672-0.0198-0.18616-0.0198-0.24161 0-0.0514-8e-3 -0.12669 0.0396-0.17812 0.0515-0.0474-4e-3 -0.087-0.0118-0.13847-4e-3 -0.0474 0.0198-0.0753 0.0198-0.13071 0-0.0555-8e-3 -0.17812-0.0118-0.26143-8e-3 -0.083 0-0.1425 0.0475-0.21375 0.0475-0.0712 8e-3 -0.11864-0.0158-0.16231-0.0198-0.0356 0-0.0871 0.0158-0.17036 0.0118-0.079-0.0158-0.17036 0-0.25339 0.0118-0.083 0-0.20196-0.0118-0.24936-4e-3 -0.0474-0.0316-0.0911-0.0198-0.13072 0.0158-0.0396 0.0713-0.0554 0.0831-0.083 0.0198-0.0287 0.0673-0.0287 0.099-0.0356 0.0594-0.0115 0.0515-0.0753 0.11876-0.12267 0.0713-0.0514 0.0594-0.0988 0.0594-0.16231 0-0.0635 0.0276-0.24161 0.0118-0.31674-0.0118-0.079-0.0475-0.11864-0.0831-0.14651-0.0316-0.0287-0.11083-0.0356-0.16231-0.0397-0.0594-3e-3 -0.0752 3e-3 -0.11087-0.0437-0.0316-0.0474-0.0554-0.0474-0.091-0.023-0.0316 0.0287-0.0713 0.0115-0.1069-9e-3 -0.0357-0.023-0.0276-0.023-0.099-0.0554-0.0673-0.0356-0.13855 0-0.17814 0.023-0.0436 0.0201-0.0276 0.0201-0.091 0.0474-0.0633 0.0287-0.11084 0.0555-0.18608 0.0951-0.0792 0.0396-0.13856 0.11492-0.12273 0.1583 0.0118 0.0514 0.0118 0.0991-0.0198 0.13071-0.0356 0.0356 4e-3 0.079 4e-3 0.079s-4e-3 0.079 0.0276 0.0951c0.0356 0.0115 0.0435 0.0712 0.0356 0.11865-4e-3 0.0514-0.0158 0.0554 0.0396 0.15456 0.0554 0.0951 0.0752 0.0514 0.11084 0.0595 0.0356 9e-3 0.0713 0.0672 0.15441 0.0911 0.0791 0.0172 0.11084 0.0316 0.19794 0.0172 0.091-0.0115 0.0276 0.0437-0.0118 0.0672-0.0396 0.0201-0.0357 0.0287-0.0475 0.10285-0.0158 0.0753-0.0158 0.0554 8e-3 0.11864 0.0158 0.0753 0.0476 0.0595 0.0118 0.1109-0.0357 0.0437 0 0.0474-0.0198 0.12669-0.0238 0.0753 0.0118 0.0951-8e-3 0.13072-0.0198 0.0356-0.0515-9e-3 -0.091 0.0201-0.0396 0.0316-0.0752 0.10687-0.11083 0.12669-0.0356 0.0201-0.12273 0.0201-0.15838 0.0753-0.0356 0.0554-0.0792 0.0911-0.11084 0.15053-0.0276 0.0635-0.1148 0.0713-0.19794 0.0713-0.0831 0-0.091 3e-3 -0.15045 0.0356-0.0633 0.023-0.18608 0.0514-0.26129 0.0911-0.0792 0.0316-0.11876-9e-3 -0.14648-0.0595-0.0276-0.0514 8e-3 -0.0911-0.0396-0.16232-0.0515-0.0793-0.0792-0.0595-0.12669-0.0437-0.0515 0.0144-0.0633 0.0144-0.099 0-0.0317-0.0172-0.0752-0.0911-0.1267-0.0477-0.0554 0.0396-0.0792 0.0316-0.2019 0.0437-0.1267 0.0172-0.19398-0.0951-0.25732-0.22178-0.0594-0.13474-0.19004-0.27321-0.25336-0.30881-0.0633-0.0437-0.15045-0.10687-0.22566-0.15054-0.0792-0.0396 0.0198-0.14249 0.0515-0.18989 0.0356-0.0514 0.0752-0.0911 0.10293-0.17036 0.0276-0.0753 0.0594-0.1425 0.0436-0.22954-0.0158-0.0911-0.0317-0.083-0.0198-0.13474 4e-3 -0.0437 0.0356-0.0437 0.0673-0.0871 0.0118-0.0172-8e-3 -0.0672-0.0198-0.11491-4e-3 -0.0201-0.0475-0.0437-0.0118-0.0991 0.0317-0.0595 0.0238-0.083 0-0.13848-0.0317-0.0554-0.0158-0.0712 4e-3 -0.11089 0.0198-0.0396-0.0118-0.14651-0.0356-0.16634-0.0198-0.0201-0.0712-0.0316-0.099-0.0635-0.0317-0.023-0.0633-0.0672-0.1148-0.083-0.0475-0.0115-0.0792-0.0115-0.13063-0.0474-0.0475-0.0356 0-0.0595-0.0475-0.10284-0.0475-0.0396-0.0831-0.079-0.1346-0.0753-0.0594 9e-3 -0.24942 0.0712-0.32067 0.0712-0.0673 0-0.26921 0.10285-0.35234 0.16634-0.0831 0.0635-0.15835 0.22954-0.17025 0.33653-0.0158 0.0991-0.0276 0.21776-0.0356 0.31274-8e-3 0.0871 0.0276 0.0911 0.0554 0.17036 0.0276 0.0753 0.0515 0.083 0.10293 0.11491 0.0554 0.0356 0.0396 0.0595 0.0356 0.1109-4e-3 0.0554-4e-3 0.0793-0.0276 0.11864-0.0238 0.0437-0.0673 0.0437-0.11083 0.0672-0.0396 0.0287-0.0712-0.0172-0.13856 0.0172-0.0712 0.023-0.0831 0.0595-0.10293 0.11865-0.0198 0.0554 0.0276 0.0396 0.0435 0.0753 0.0238 0.0316-0.0554 0.0287-0.10294 0.0595-0.0515 0.0356-0.13855 0.14652-0.17418 0.19794-0.0356 0.0437-0.0792 0.10687-0.091 0.21776-0.0118 0.1109-0.0396 0.0911-0.12273 0.15054-0.0871 0.0632-0.0515 0.083-0.091 0.13072-0.0396 0.0474-0.0554 0.0991-0.0752 0.13071-0.0198 0.0356-0.0356 0.0871-0.0673 0.13847-0.0356 0.0514-0.0554 0.11865-0.091 0.14652-0.0356 0.023-0.0276 0.10285-0.0198 0.15427 4e-3 0.0595 0.0554 0.0316 0.0594 0.087 4e-3 0.0555-0.0198 0.0201-0.0554 0.0115-0.0356-9e-3 0 0.0635 0.0158 0.12669 0.0158 0.0595 0.0396 0.0595 0.0792 0.11492 0.0435 0.0554 0.0356 0.0672 0.0356 0.11865 0 0.0474 0.0475 0.0672 0.099 0.13847 0.0475 0.0713 0.23753 0.29691 0.25336 0.36026 0.0198 0.0672-0.0158 0.22178-0.0276 0.30483-0.0198 0.0793-0.0356 0.22179-0.0633 0.33653-0.0238 0.11089-0.0633 0.43943-0.11083 0.53444-0.0515 0.10285-0.0752 0.28499-0.0475 0.4236 0.0238 0.11089-0.0554 0.45133-0.0713 0.61758-0.0158 0.16634-0.0356 0.13071 0.14649 0.24534-0.0633-0.0115-0.14649-0.0316-0.24942-0.0115-0.095 0.0115-0.23359-0.0316-0.32067-0.0115-0.0831 0.0172-0.19004-0.10285-0.25336-0.0712-0.0713 0.0316-0.21377 0.0201-0.34838-0.0172-0.13063-0.0316-0.31276-0.0632-0.31276-0.0632l-0.17024 0.0951s-0.0594-0.0474-0.12669-0.0991c-0.0673-0.0514-0.099 0.0595-0.0673 0.19392 0.0317 0.13071 0.34443 0.32859 0.40381 0.61758 0.11084-0.023 0.28505 0 0.36026 0.0115 0.0752 0.0115 0.16232 0 0.22567-0.0201 0.0633-0.0201 0.22962-0.0356 0.24942-9e-3 0.0198 0.0287 0.091 0.0396 0.13855 0.0554m4.9368-5.9542c-0.0555 0.023-0.091 0.0201-0.13856-9e-3 -0.0276-0.0316-0.0673-0.0474-0.0515-0.0712 0.0238-0.0287 0.0475-0.0396-4e-3 -0.0635-0.0357-0.0201-0.0276-0.0555-4e-3 -0.0871 0.0515-0.0712 0.0436-0.0595 0.0831-0.0595 0.0357 0 0.0357 0.0172 0.0831 0.0172 0.0475 0 0.0831-9e-3 0.15042-0.0316 0.0357-0.0115 0.11086-3e-3 0.13462 0.0115 0.0515 0.0356 0.0396 0.0911 0.0831 0.0713 0.0357-0.0115 0.0515 9e-3 0.0594 0.0554 4e-3 0.0554 0 0.0595-0.0357 0.087-0.0357 0.023-0.0357 0.023-0.10293 0.0437-0.0673 0.0316-0.0396 0.0356-0.10294 0.0356-0.0712 0-0.10293-0.0287-0.15438 0m-3.3533-0.39444c8e-3 -0.0474 8e-3 -0.0437 0.0316-0.083 0.0317-0.0437 0.0515-0.023 0.0317-0.079-0.0198-0.0554-0.0317-0.0595-0.0317-0.0988-4e-3 -0.0396-0.0118-0.0474 0.0118-0.0911 0.0238-0.0396 0.0317-0.0514 0.0673-0.0437 0.0396 9e-3 0.0752 0.0201 0.1346 0.0144 0.0673-3e-3 0.1069 9e-3 0.17814-0.0144 0.0673-0.023 0.0752-0.0172 0.099 0.0287 0.0238 0.0437 0.0554 0.0474 0.0673 0.087 8e-3 0.0396 4e-3 0.0635 0.0436 0.083 0.0396 0.0115 0.0515 0.0514 0.0712 0.0712 0.0158 0.0201 0.0317 0.0514 0.0158 0.0753-0.0238 0.0201-0.0118 0.0287-4e-3 0.0793 4e-3 0.0554 0.0276 0.0991 0.0198 0.17409-4e-3 0.0712-0.0158 0.0991-8e-3 0.1583 4e-3 0.0554-8e-3 0.0396-0.0673 0.0951-0.0633 0.0437-0.0554 0.10687-0.14252 0.087-0.0871-0.0201-0.12669-0.0437-0.19398-0.087-0.0673-0.0474-0.0752-0.0635-0.099-0.11492-0.0276-0.0514-0.0396-0.079-0.0673-0.10687-0.0238-0.0287 0-0.0396-0.0238-0.0672-0.0317-0.0316-0.0317-0.0396-0.10294-0.0712-0.0238-0.0437-0.0396-0.0437-0.0317-0.0951m-0.79178 2.1814c0.0356-0.0555 0.0435-0.0397 0.0554-0.0988 0.0118-0.0635-8e-3 -0.11089 0.0554-0.10284 0.0594 0.0201 0.0276-0.0514 0.0238-0.0635-0.0435-0.087 8e-3 -0.079 0.0356-0.12267 0.0515-0.083 0.091-0.0514 0.1267-0.13445 0.0317-0.0793 0.0554-0.12267 0.0752-0.17811 0.0198-0.0555 0.0158-0.0595 0.091-0.15456 0.0752-0.0911 0.095-0.0672 0.15042-0.13847 0.0554-0.079 0.0475-0.0871 0.0594-0.14652 0.0158-0.0635 0.11877-0.0713 0.16629-0.0988 0.0515-0.0287 0.10689 0 0.10689 0.0753s-0.0515 0.0672 0.0198 0.14652c0.0673 0.0713 0.1148 0.15054 0.19794 0.18989 0.0831 0.0437 0.13459 0.1425 0.19397 0.0554 0.0633-0.083 0.091-0.083 0.13063-0.10687 0.0435-0.0287 0.0475 0.0115 0.0792 0.0712 0.0276 0.0514 0.0118 0.0991 0.0317 0.18616 0.0198 0.0911 0.0198 0.14249 0.0554 0.23356 0.0356 0.0871 8e-3 0.10687 0.0633 0.17036 0.0554 0.0632 0.0673 0.083 0.0831 0.13072 0.0118 0.0474 0.0792 0.0201 0.13856 0.0316 0.0554 0.0144 0.0673 0.0437 0.14252 0.0672 0.0752 0.0201 0.095-0.0514 0.12669 0.0316 0.0276 0.083 0.0436 0.11492 4e-3 0.20197-0.0396 0.0911-0.10294 0.11491-0.0831 0.20598 0.0238 0.0911 0.0475 0.16634 0.0276 0.23356-0.0198 0.0713-0.0554 0.12267-0.0792 0.17812-0.0317 0.0555-0.0633 0.26919-0.0514 0.31277 0.0118 0.0396 0.0276 0.0287-4e-3 0.13071-0.0356 0.10285-0.0158 0.29691-8e-3 0.33653 8e-3 0.0437 0 0.0632-0.0158 0.14652-0.0118 0.083-0.0276 0.20598-0.0118 0.32066 0.0118 0.10687 0.15439 0.40381 0.13856 0.47509-0.0158 0.0672-0.0356 0.0911-0.0435 0.15054-8e-3 0.0595-0.0436 0.0951-0.0238 0.15456 0.0158 0.0554-8e-3 0.0951 0.0276 0.13473 0.0356 0.0437 8e-3 0.0951 4e-3 0.15054-4e-3 0.0595-0.0594 0.0595-4e-3 0.15054 0.0554 0.0911 0.13063 0.18616-0.0118 0.18616-0.14252 0-0.25336-0.0201-0.29692-0.0287-0.0435-0.0115-0.20587 0-0.27315 0.0115-0.0673 0.0172-0.0792 0.0477-0.12669 0.0287-0.0475-0.0201-0.3088-0.0356-0.41569-0.0316-0.10293 3e-3 -0.21377-0.0555-0.26921-9e-3 -0.0475 0.0437-0.0831 0.0951-0.14252 0.0514-0.0554-0.0474-0.0831-0.023-0.11877-0.0115-0.0356 0.0144 4e-3 -0.0115-0.0435-0.0474-0.0515-0.0316-0.19004-0.0115-0.22963 0-0.0475 0.0144-0.0436-0.0201-0.0554-0.0356 0.0118-0.0753 0.0436-0.15054 0.0276-0.21776-0.0158-0.0555-0.0435-0.0871-0.0316-0.20972 4e-3 -0.1267-0.0238-0.17812 4e-3 -0.24535 0.0276-0.0672 0.0198-0.13473 0.0198-0.24534 0-0.11089-8e-3 -0.19392 0.0435-0.26918 0.0475-0.079 0.0594-0.0514 0.0673-0.1267 8e-3 -0.0753 0-0.14651-0.0198-0.18989-0.0238-0.0514 8e-3 -0.1583 0.0118-0.22954 8e-3 -0.0672 8e-3 -0.0911 0.0356-0.17036 0.0276-0.083 8e-3 -0.083 0.0198-0.16634 0.0158-0.0871 0.0238-0.0635 0.11083-9e-3 0.091 0.0514 0.11084 0.0911 0.15835 0.0595 0.0515-0.023 0.13856-9e-3 0.19004 0.023 0.0435 0.0287 0.14252 0.0672 0.20587 0.0514 0.0594-0.0115 0.0673 0.0172 0.13063-0.0396 0.0633-0.0555 0.12273-0.0555 0.0673-0.10687-0.0554-0.0554-0.091-0.11492-0.11086-0.19794-0.0198-0.0793-0.0594-0.0951-0.0871-0.20599-0.0276-0.10687-0.0515-0.16633-0.13856-0.17409-0.091-3e-3 -0.15835 9e-3 -0.20586-3e-3 -0.0515-0.0115-0.0594-0.0437-0.1069-0.0672-0.0436-0.0287-0.0752-0.0356-0.1346-0.0554-0.0633-0.0201-0.0554-0.0474-0.12669-0.0753-0.0673-0.0287-0.0871-0.0595-0.15045-0.11865-0.0633-0.0635-0.091-0.10285-0.1069-0.18214-8e-3 -0.0713 0-0.1425-8e-3 -0.17812-0.0158-0.0316 0-0.0356 0.0316-0.0911"/>
   <path d="m94.712 140.61c0.0752 9e-3 0.0871 0.0595 0.0871 0.1425 0 0.0753 0.0317 0.10687 0.11083 0.087 0.0831-0.0201 0.091 0.023 0.15439 0.0595 0.0594 0.0356 0.11876 0.0201 0.19794 0 0.0792-0.0144 0.0633-0.023 0.099-0.10285 0.0317-0.0793 0.0792-0.11491 0.12273-0.18616 0.0435-0.0672 0.0158-0.15456 0-0.19794-0.0198-0.0474-0.0356-0.0635-0.0356-0.15456 0-0.087-0.0198-0.0514-0.0356-0.12267-0.0198-0.0672-0.0792-0.0951-0.13856-0.13847-0.0633-0.0437-0.12669-0.0595-0.18211-0.0316-0.0673 0.023-0.19004 0-0.26128 0.0115-0.0673 0.0201-0.0673 0.0201-0.11084 0.0713-0.0475 0.0554-0.0317 0.0871-0.0633 0.15054-0.0317 0.0595-0.0554 0.0712-0.0594 0.15829 4e-3 0.079 0.0158 0.0287 0.0356 0.12669 0.0158 0.0911 0 0.12267 0.0792 0.1267"/>
   <path d="m91.684 143.86c0.0712 0.0712 0.15439 0.21374 0.21377 0.26143 0.0633 0.0514 0.091 0.0437 0.13459 0.11491 0.0475 0.0672 0.10294 0.0911 0.19004 0.1425 0.0871 0.0477 0.24546 0.17811 0.30088 0.2574 0.0554 0.083 0.0752 0.11865 0.12273 0.16232 0.0515 0.0514 0.31275 0.14652 0.40381 0.21776 0.095 0.0672 0.18211 0.0991 0.27315 0.1425 0.0831 0.0437 0.25732 0.0437 0.30088 0.087 0.0475 0.0437 0.12669 0.0635 0.2019 0.0437 0.0713-0.0201 0.0673-9e-3 0.14649 9e-3 0.0831 0.023 0.38797 0.0555 0.47903 0.0672 0.0871 3e-3 0.22962 0.0356 0.28504 3e-3 0.0554-0.0316 0.1069 0.0115 0.16232 0.0635 0.0554 0.0514 0.18211 0.0287 0.25732 3e-3 0.0752-0.0172 0.11083 0.0316 0.20587 9e-3 0.095-0.023 0.32463 0.0201 0.40776 0 0.0792-0.0201 0.099-0.0554 0.18211-0.0474 0.091 3e-3 0.30088-0.1267 0.34443-0.19392 0.0435-0.0712 0.095-0.0474 0.14252-0.0991 0.0515-0.0514 0.18211-0.0514 0.26525-0.0635 0.0792-0.0115 0.23357-0.0712 0.29296-0.0951 0.0554-0.023 0.16628-0.0951 0.2217-0.0793 0.0594 0.0115 0.35234-0.13071 0.41964-0.15054 0.0712-0.0201 0.22566 0.083 0.27711 0.13072 0.0476 0.0437 0.0555 0.0871 0.10294 0.11089 0.0515 0.0287 0.12669-0.023 0.2019 0.0514 0.0752 0.0753 0.49883 0.23356 0.54238 0.2416 0.0436 0.0172 0.0554 0 0.13062-9e-3 0.0752-0.0172 0.0633 9e-3 0.11877 0.0713 0.0554 0.0635 0.099 0.0753 0.15045 0.12267 0.0475 0.0554 0.14649 0.1109 0.194 0.16634 0.0436 0.0555 0.12273 0.10687 0.18211 0.13847 0.0555 0.0287 0.0871 0.0115 0.12273 0.0554 0.0396 0.0396 0.17418 0.20598 0.22567 0.19794 0.0515-3e-3 0.0673-3e-3 0.12669 0.0554 0.0555 0.0635 0.19397 0.14652 0.26525 0.1741 0.0752 0.0316 0.1148 0.0871 0.15045 0.15054 0.0316 0.0595 0.11084 0.083 0.20983 0.22954 0.0949 0.14651 0.48695 0.55426 0.51862 0.62551 0.0316 0.0712 0.0752 0.0115 0.0515 0.0635-0.0238 0.0474-0.0515 0.10284-0.10293 0.23758-0.0555 0.13847-0.0633 0.12669-0.0831 0.24161-0.0238 0.11491-0.0238 0.10285-0.1069 0.0951-0.0831-0.0115-0.13856-0.10687-0.23753-0.13847-0.10293-0.0287-0.16628-0.11492-0.24942-0.1741-0.0871-0.0632-0.11877-0.11491-0.24546-0.10284-0.12273 9e-3 -0.16231-0.0672-0.26918-0.0753-0.099-0.0115-0.32068-0.0635-0.39194-0.11492-0.0752-0.0554-0.17418-0.0753-0.27712-0.0871-0.10293-9e-3 -0.18607-0.0514-0.24942-0.083-0.0633-0.0316-0.19004-0.12267-0.26128-0.15427-0.0752-0.0316-0.14253-0.0951-0.2415-0.10285-0.091-0.0115-0.10293-0.083-0.15438-0.0951-0.0515-0.0115-0.1148-0.0554-0.17815-0.13474-0.0594-0.0871-0.10293-0.0753-0.17024-0.0951-0.0594-0.0201-0.13066-0.0316-0.19794-0.0753-0.0594-0.0396-0.12273-0.0396-0.19401-0.0474-0.0752-0.0115-0.087 0.0287-0.19794 0.0396-0.11876 9e-3 -0.29296-0.10687-0.41964-0.0635-0.12273 0.0437-0.46715-0.0201-0.61363 0.0316-0.14649 0.0514-0.29296 0.083-0.38006 0.10285-0.0792 0.0201-0.17418-9e-3 -0.30879 0.0437-0.13856 0.0514-0.31276 0.083-0.39589 0.10285-0.0831 0.023-0.099 0.0396-0.19004 0.0635-0.091 0.0201-0.49487 0.28096-0.59384 0.37611-0.1069 0.0911-0.25336 0.10285-0.34838 0.24937-0.091 0.14651-0.18608 0.14651-0.24942 0.22954-0.0634 0.087-0.13856 0.0951-0.15045 0.18616-0.0238 0.0951-0.15836 0.29691-0.13063 0.38005 0.0317 0.079-0.0198 0.11491-0.0515 0.21776-0.0316 0.10285-0.11086 0.10687-0.16628 0.20196-0.10293 0.20197-0.0238 0.079 0.0831 0.16232 0.1069 0.0871 0.17815 0.0632 0.21774 0.0115 0.0475-0.0514 0.24149 0.0514 0.3365 0.0753 0.095 0.0201 0.0831 0.079 0.20587 0.14249 0.1267 0.0635 0.14253 0.0201 0.23753 0.0115 0.095-0.0115 0.19398-3e-3 0.27712 0.0356 0.0831 0.0437 0.21773 0.0514 0.30087 0.0753 0.0831 0.0201 0.16628 0.0793 0.30088 0.0477 0.13856-0.0316 0.17024 0.0201 0.29296 0.0712 0.12669 0.0514 0.16628 9e-3 0.27315 0.0201 0.10293 0.0115 0.18607-0.0595 0.26921-0.0316 0.0871 0.0316 0.17815-0.0201 0.28505 0 0.10293 0.0201 0.11083 0.0555 0.20587 0.0316 0.095-0.0201 0.15835-0.0712 0.24942-0.10284 0.099-0.0316 0.47507-0.15054 0.52654-0.1583 0.0514-9e-3 0.11083 0.0201 0.13459-0.0396 0.0198-0.0632 0.24149-0.17812 0.289-0.22955 0.0555-0.0554 0.2217-0.0356 0.29692-0.13847 0.0713-0.10285 0.30879-0.23758 0.38401-0.3246 0.0713-0.0793 0.49882-0.30088 0.56217-0.33256 0.0673-0.0316 0.099-0.0911 0.1148-0.19392 0.0238-0.10687 0.22962 0.0396 0.31671 0.0911 0.0831 0.0514 0.1148 0.0632 0.2098 0.083 0.091 0.0201 0.14253-0.0115 0.20587 0.0635 0.0633 0.0712 0.27315 0.18617 0.33255 0.24161 0.0673 0.0514 0.16628 0.11492 0.22962 0.18616 0.0633 0.0753 0.27318 0.12267 0.27318 0.12267s0.0316-0.11089 0.0713 0.0753c0.0436 0.18616 0.20191 0.30091 0.32463 0.47112 0.12669 0.16634 0.095 0.0287 0.0831 0.14652-0.0118 0.11089-0.0831 0.17812-0.0713 0.37215 0.0118 0.20196 0.0118 0.20972-0.0198 0.42754-0.0316 0.22178-0.0752 0.25338-0.0436 0.39194 0.0316 0.13072-0.0118 0.13072-0.0316 0.24534-0.0198 0.11492-0.0276 0.1899-0.0515 0.38795-0.0239 0.19794-0.0476 0.15428-0.0239 0.40381 0.0239 0.24937 0 0.20196-0.0515 0.36819-0.0515 0.16634-0.0594 0.41567-0.0515 0.58195 0.0118 0.17036 0 0.24161-0.0316 0.38008-0.0316 0.13445-0.0198 0.20598-0.0316 0.33253-8e-3 0.1267-8e-3 0.29295-8e-3 0.43944 0 0.14651-0.0791 0.74823-0.0396 0.83534 0.0357 0.083-0.0118 0.18214-0.0633 0.30484-0.0475 0.12267-0.095 0.15053-0.087 0.26143 8e-3 0.11864-4e-3 0.11864-0.0831 0.24534-0.0712 0.11865-0.0158 0.0988-0.0276 0.2416-8e-3 0.1425-0.0396 0.11492-0.13065 0.22179-0.095 0.10687-0.18211 0.24534-0.19001 0.34836-8e-3 0.10687 8e-3 0.0988-0.0871 0.16232-0.095 0.0672-0.0633 0.14249-0.12273 0.29694-0.0554 0.15427-0.0476 0.13071-0.10293 0.23758-0.0594 0.10285-0.0238 0.16232-0.0831 0.27321-0.0712 0.11492-0.0276 0.16232-0.0238 0.29297 0.0118 0.13474 0 0.0951-0.0436 0.20197-0.0515 0.10687-0.0515 0.0554-0.0316 0.13071 0.099 0.0287 0.2019-0.023 0.28108-0.0437 0.0791-0.0172 0.0594-0.0356 0.13856-9e-3 0.0791 0.0287 0.17418 0.0287 0.25335 0.0316 0.0791 0.0115 0.2217-3e-3 0.32463 0 0.1069 0.0115 0.0555-0.0474 0.13063-0.1267 0.0791-0.079 0.0673-0.14249 0.13066-0.20196 0.0752-0.0635 0.0357-0.15829 0.1069-0.3088 0.0712-0.15054 0.0712-0.20972 0.091-0.33653 0.0158-0.11865 0-0.16231 0.0316-0.29691 0.0396-0.13071 0.0396-0.11491 0.0791-0.18989 0.0475-0.0793 0.0357-0.15054 0.0357-0.25741 0-0.10285 0-0.1899 0.0515-0.30484 0.0515-0.11491 0.0357-0.14249 0.0436-0.26516 8e-3 -0.1267-0.0357-0.16634-0.0158-0.31274 0.0158-0.15456-0.0198-0.13474 0.0633-0.30881 0.0791-0.17811 0.0871-0.0635 0.10294-0.16634 0.0158-0.10687 0-0.13071 8e-3 -0.23758s0.0357-0.0793 0.0357-0.16634c0-0.0871-0.0436-0.13474-0.0594-0.23758-0.0198-0.10688-0.0198-0.12268 0-0.16634 0.0158-0.0437 8e-3 -0.13847 0-0.27321-8e-3 -0.13072-0.0198-0.21776 0-0.30881 0.0158-0.087 0.0158-0.13847 0-0.23356-0.0198-0.0951-0.0198-0.18616-0.0198-0.30087v-0.45529c0-0.12267-0.0515-0.0713-0.0357-0.1741 0.0198-0.10687 0.0475-0.0911 0.0238-0.15829-0.0158-0.0712 0-0.13474 0-0.26115 0-0.13473-4e-3 -0.15829 0.0476-0.28498 0.0515-0.12267 0.0436-0.32464 0.0357-0.44736-8e-3 -0.12268-0.0198-0.20972 0-0.34047 0.0158-0.13473 0.0357-0.17036 0.0396-0.28096 0.0118-0.11492 0.0118-0.16634 0.0475-0.23759 0.0357-0.0712 0.0158-0.14249 0.0633-0.27321 0.0396-0.13071 0.0158-0.20971 8e-3 -0.31274-8e-3 -0.10687-0.0158-0.15053 0.0316-0.2574 0.0554-0.10285 0.0316-0.1583 0.0396-0.24534 8e-3 -0.0871-0.0316-0.15054-0.0791-0.1741-0.0554-0.0287-0.0791-9e-3 -0.0791-0.079 0-0.0712-0.0554-0.13072-0.091-0.19392-0.0316-0.0595-0.0316-0.12267-0.0316-0.23759 0-0.11089-0.0198-0.14651-0.0357-0.26516-0.0198-0.10687-0.0276-0.13072 0-0.21776 0.0276-0.0871 4e-3 -0.11865 0-0.21374-0.0118-0.0988 0.0515-0.083 0.0594-0.17812 8e-3 -0.0951 0.0515-0.15054 0.0792-0.23759 0.0276-0.087 0.0276-0.17409 0.0515-0.22954 0.0276-0.0514 0.0554-0.0911 0.095-0.19392 0.0555-0.11865 0.091-0.2258 0.0555-0.26918-0.0357-0.0437 4e-3 -0.0437-0.0791-0.22179-0.0752-0.17409-0.0158-0.23758-0.0713-0.36025-0.0515-0.12267-0.095-0.20197-0.14648-0.33254-0.0555-0.13071-0.0436-0.20972-0.0871-0.29694-0.0476-0.087-0.0712-0.35232-0.0712-0.35232s0.0633-0.0356 0.0436-0.0793c-0.0198-0.0437-0.0357-0.13072-0.0633-0.18214-0.0276-0.0555-0.0396-0.11865-0.0673-0.20196-0.0276-0.087 0.0276-0.10687-0.0276-0.20972-0.0515-0.10285-0.087-0.15054-0.16628-0.24161-0.0752-0.0871-0.0554-0.10285-0.0594-0.1899-8e-3 -0.087-0.0752-0.13071-0.14252-0.19391-0.0713-0.0595-0.12273-0.19392-0.17421-0.24535-0.0515-0.0514-0.0791-0.0632-0.10294-0.17409-0.0276-0.11492-0.0831-0.15054-0.17814-0.21776-0.095-0.0753-0.17025-0.21374-0.24546-0.28499-0.0792-0.0672-0.099-0.083-0.14649-0.19794-0.0554-0.11491-0.0791-0.17812-0.12669-0.26517-0.0436-0.087-0.095-0.19391-0.1148-0.2574-0.0118-0.0595 0.0357-0.1109 0.0276-0.25339-8e-3 -0.13847 8e-3 -0.20196 0.0276-0.27723 0.0158-0.083 0.0515-0.14249 0.0357-0.22954-0.0198-0.087-0.0357-0.15054-0.0357-0.23759 0-0.087-0.0198-0.17811-0.0673-0.20972-0.0594-0.0356-0.0752-0.087-0.095-0.15053-0.0158-0.0595-0.0712-0.11894-0.11086-0.20599-0.0436-0.087-0.091-0.14249-0.14252-0.20598-0.0515-0.0595-0.0436-0.11491-0.11087-0.25339-0.0712-0.14249-0.0198-0.16633-0.0673-0.25338-0.0396-0.0911-0.0554-0.20599-0.13459-0.24937-0.0791-0.0437-0.18608-0.17409-0.28505-0.21776-0.099-0.0437-0.11086-0.0554-0.16231-0.0437-0.0554 9e-3 -0.17815-0.0991-0.23753-0.15053-0.0633-0.0514-0.25732-0.1741-0.34442-0.20972-0.0871-0.0356-0.28108-0.16232-0.36818-0.19392-0.087-0.0356-0.29295-0.079-0.35234-0.0437-0.0594 0.0356-0.0515 0.0356-0.10294 0.0753-0.0554 0.0477-0.15045-3e-3 -0.22169-3e-3 -0.0713 0-0.47903-0.0144-0.47903-0.0144s-0.0633 0.0144-0.11877 0.0554c-0.0514 0.0474-0.095-0.0144-0.23356 0-0.14252 0.0201-0.16232 0.0201-0.15042 0.11089 8e-3 0.0871 8e-3 0.10285 0.0792 0.20196 0.0712 0.0951 0.0871 0.087 0.0871 0.13072 0 0.0437 0.0712 0.10285 0.1148 0.16634 0.0435 0.0595 0.0515 0.0951 0.0633 0.21776 8e-3 0.12669 0 0.1741 0.0238 0.3246 0.0238 0.15054 0.0276 0.24535 0.1069 0.3286 0.0752 0.0753 0.0673 0.16232 0.15438 0.28901 0.0871 0.11865 0.0475 0.11865 0.0554 0.26919 8e-3 0.15054 0.0317 0.15054 0.10294 0.23758 0.0712 0.0871 0.099 0.20972 0.17418 0.31674 0.0831 0.10687 0.13459 0.079 0.20587 0.16633 0.0673 0.0871 0.0356 0.0595 0.1069 0.1583 0.0713 0.0951 0.0792 0.0871 0.15438 0.13071 0.0791 0.0474 0.18608 0.23759 0.25336 0.35236 0.0712 0.11491 0.13459 0.11491 0.2098 0.18989 0.0792 0.083 0.17815 0.0555 0.27712 0.0911 0.095 0.0316 0.22566 9e-3 0.31275 0.0172 0.0871 9e-3 0.22566 0.0172 0.29692 9e-3 0.0713-9e-3 0.19794 0.0144 0.28108 0 0.091-0.0172 0.15045-0.0316 0.24546-0.0172 0.099 0.0172 0.30879 0.32461 0.34442 0.39588 0.0396 0.0712 0.1069 0.11865 0.18607 0.15428 0.0791 0.0396 0.0791 0.11491 0.0871 0.17036 8e-3 0.0514 0.0475 0.087 0.0673 0.15053 0.0276 0.0595 0.11087 0.13072 0.15835 0.20972 0.0555 0.0753 0.45924 0.72448 0.50278 0.79575 0.0436 0.0712 0.0713 0.13474 0.0515 0.18617-0.0158 0.0514 0.0198 0.083 0.0594 0.17409 0.0515 0.0871 0.0396 0.12267 0.0713 0.18214 0.0357 0.0635 0.0633 0.10687 0.0515 0.17812-8e-3 0.0712 0.0396 0.13071 0.0396 0.21776 0 0.0911 0.0198 0.12267 0.0475 0.23758 0.0396 0.11492 0.0712 0.60572 0.0831 0.8789 8e-3 0.27321-0.0712 0.087-0.14649 0.0514-0.0831-0.0356-0.23753-0.19794-0.32859-0.23356-0.0871-0.0397-0.31275-0.24161-0.38797-0.28499-0.0673-0.0437 0-0.11491-0.0594-0.14651-0.0594-0.0356-0.21774-0.19392-0.33255-0.22955-0.11083-0.0356-0.40381-0.22954-0.48298-0.25338-0.0792-0.023-0.22566-0.1583-0.26922-0.15054-0.0475 0.0115-0.17024-0.0316-0.22566-0.0871-0.0515-0.0554-0.26921-0.16634-0.34838-0.22178-0.0791-0.0514-0.52654-0.21776-0.61363-0.23356-0.0871-0.0201-0.0791-0.10688-0.0791-0.19392 0-0.087-0.0752-0.18616-0.099-0.25339-0.0238-0.0712-0.0316-0.0871 0-0.17812 0.0357-0.087-0.0158-0.12267-0.0594-0.18989-0.0436-0.0672-0.0158-0.0991-0.0158-0.17812 0-0.079-0.0633-0.13071-0.13066-0.13847-0.0712-9e-3 -0.27315-0.25741-0.39193-0.32463-0.11083-0.0712-0.43548-0.3365-0.55028-0.38798-0.1148-0.0514-0.41173-0.29691-0.49091-0.34044-0.0792-0.0437-0.66905-0.31673-0.76011-0.35235-0.099-0.0356-0.15045-0.0672-0.29296-0.0356-0.14252 0.0356-0.30879-0.023-0.48298-0.0595-0.17418-0.0356-0.28108-0.0287-0.43152-0.0115-0.15043 0.0201-0.36026-0.0316-0.49091-0.0172-0.12669 0.0172-0.34047 0.0635-0.38005 0.079-0.0317 0.0201-0.0752 0.0514-0.11877 0.0793-0.0436 0.0287-0.14252 0.0514-0.20983 0.0713-0.0712 0.0201-0.1069-0.0713-0.15835-0.0474-0.0554 0.0287-0.22567 0.0712-0.30088 0.10687-0.0752 0.0396-0.12669 0.0712-0.20587 0.083-0.0831 0.0115-0.15438 0.0356-0.25732 0.0951-0.1069 0.0672-0.1069 0.0713-0.17814 0.0753-0.0752 9e-3 -0.14253 0.0595-0.19398 0.1109-0.0594 0.0474-0.11876 0.0635-0.19004 0.0514-0.0673-3e-3 -0.1148 0.0595-0.16628 0.11491-0.0515 0.0595-0.16628 0.0672-0.2217 0.11492-0.0475 0.0396-0.30087 0.13071-0.38797 0.20972-0.0792 0.079-0.0198 0.0991 8e-3 0.18616 0.0317 0.0911 0.0713 0.0144 0.14649 0.0753 0.0752 0.0595 0.15439 0.13071 0.22963 0.18989 0.0752 0.0514 0.13459 0.13072 0.17024 0.20972 0.0356 0.079 0.12273 0.11865 0.18608 0.16634 0.0594 0.0514 0.1148 0.11865 0.18607 0.1899m6.5124 3.951c-0.22566 0.14249-0.35234 0.29297-0.40777 0.29297-0.0554 0-0.17024 0.0356-0.194 0.079-0.0238 0.0437-0.11083 0.12267-0.18607 0.18213-0.0752 0.0635-0.34443 0.22955-0.45132 0.24161-0.10293 0.0172-0.18607 0.0437-0.25732 0.0712-0.0792 0.0287-0.11084 0.0555-0.20983 0.0437-0.099-0.0115-0.30484-0.0356-0.38798-0.0356-0.0792 0-0.18607-0.0595-0.27315-0.0635-0.0871-9e-3 -0.18607-0.0287-0.24942-0.023-0.0633 9e-3 -0.0514-9e-3 -0.14252-9e-3 -0.095 0-0.11084 0.0356-0.20587 9e-3 -0.099-0.0201-0.0673-0.0201-0.19004-0.0396-0.11876-0.0201-0.17814-9e-3 -0.17814-9e-3l-0.0436-0.0555s-0.0276-0.0287-0.095-0.0201c-0.0673 0.0172-0.091 0.0287-0.15835 0-0.0594-0.023-0.10294 0.0514-0.13856-9e-3 -0.0396-0.0672-0.0198-0.0396-0.0792-0.11865-0.0515-0.083-0.10293-0.0753-0.0712-0.13473 0.0316-0.0555 0.0673-0.0316 0.11083-0.0948 0.0435-0.0595 0.0633-0.10285 0.0435-0.17036-0.0198-0.0712-0.0238-0.083 8e-3 -0.12267 0.0317-0.0356 0.0792 0 0.12272-0.0595 0.0436-0.0632 0.0752-0.10285 0.0633-0.13847-0.0158-0.0316 0.0356-0.0635 0.0594-0.0991 0.0276-0.0396 0.0594-0.0396 0.10294-0.10687 0.0436-0.0672 0.0831-0.0871 0.15045-0.1583 0.0673-0.0672 0.0435-0.083 0.11083-0.11491 0.0673-0.0356 0.0752-9e-3 0.14253-0.0595 0.0673-0.0474 0.0752 9e-3 0.15835-0.0474 0.0792-0.0595 0.095-0.0115 0.18211-0.0712 0.099-0.0555 0.15042-0.0172 0.20983-0.0555 0.0633-0.0396 0.0792-9e-3 0.21774-0.0595 0.14252-0.0514 0.24545-0.0514 0.39589-0.0555 0.15045-0.0172 0.32067-0.0554 0.39985-0.0753 0.0792-0.0201 0.34838 0.0514 0.46715 0.0514 0.12273 0 0.32463 0.0595 0.4434 0.079 0.11876 0.0201 0.16231 0.0793 0.26128 0.13071 0.10294 0.0514 0.1069 0.0911 0.16232 0.1109 0.0554 0.0144-8e-3 0.0753-0.11483 0.083-0.10293 3e-3 -0.15439 0-0.23753 0.0514-0.0831 0.0437-0.19004 0.0595-0.28504 0.0287-0.095-0.0287-0.14252-0.0287-0.24546 3e-3 -0.095 0.0396-0.26921 0.0595-0.35234 0.0672-0.0871 3e-3 -0.11877 0-0.2217 0.0356-0.099 0.0356-0.13459 0.0514-0.25336 0.0951-0.11876 0.0437-0.17418 0.0672-0.25732 0.087-0.0792 0.0172-0.095 0.0672-0.20983 0.13072-0.11877 0.0635-0.22567 0.0951-0.32859 0.15829-0.095 0.0713-0.0831 0.1109-4e-3 0.11865 0.0792 0.0172 0.11086 0.0316 0.18211-3e-3 0.0673-0.0396 0.27711-0.0437 0.32858-0.0635 0.0554-0.0201 0.1069-0.0115 0.19004-0.0554 0.0792-0.0437 0.1346-0.023 0.25336-0.0672 0.11877-0.0437 0.21377-9e-3 0.29296-0.0396 0.0831-0.0287 0.0712-0.0356 0.194-0.0554 0.1267-0.0172 0.13856-0.0437 0.25732-0.0287 0.11877 0.0115 0.18211 0.0396 0.28108 0.0356 0.095-9e-3 0.27316 0.0356 0.34047 0.0201 0.0713-0.0201 0.20191 0.0287 0.29691-9e-3 0.091-0.0356 0.2217-0.023 0 0.11865m1.4529-6.9281c-0.0475 0.0115-0.0594 0.0115-0.0555 0.0951 8e-3 0.0712 8e-3 0.10687-0.0158 0.13847-0.0316 0.0356-0.0436 0.11491-0.0436 0.11491s-0.0158 0.0555 8e-3 0.12268c0.0198 0.0632-8e-3 0.0951 0.0238 0.15427 0.0357 0.0672 0.095 0.18616 0 0.12267-0.091-0.0632-0.0673-0.0514-0.13856-0.10687-0.0752-0.0595-0.17025-0.10687-0.18211-0.17007-4e-3 -0.0672 0.0158-0.1109-0.0555-0.15456-0.0712-0.0555-0.0712-0.0287-0.13856-0.13072-0.0633-0.10687-0.17021-0.20972-0.23752-0.28096-0.0633-0.0672-0.17418-0.18214-0.2415-0.22955-0.0633-0.0396-0.0712-0.0635-0.15835-0.0911-0.0831-0.0287-0.14648 0-0.19004-0.0554-0.0396-0.0595-0.0554-0.0753-0.16231-0.0753-0.11084 0-0.0396 0.13847 0.0276 0.18214 0.0633 0.0396 0.1148 0.0911 0.16628 0.13474 0.0515 0.0437 0.12669 0.11864 0.14648 0.18616 0.0238 0.0632 0.0118 0.0712 0.10294 0.14249 0.095 0.0672 0.17024 0.10687 0.22566 0.18616 0.0554 0.0753 0.1148 0.0555 0.14649 0.13474 0.0276 0.079 0.0515 0.0911 0.0871 0.17007 0.0357 0.0793 0.0238 0.15054 0.087 0.21776 0.0673 0.0635 0.21774 0.27321 0.0791 0.22581-0.0831 0-0.14649 0.023-0.27712 0.0144-0.12669-9e-3 -0.22169 0.0172-0.29295-0.0514-0.0752-0.0632-0.24942-0.13474-0.32068-0.18616-0.0712-0.0514-0.27315-0.14249-0.30087-0.19392-0.0276-0.0474-0.15835-0.13847-0.2138-0.19794-0.0554-0.0595-0.0871-0.0712-0.13459-0.16231-0.0515-0.0951-0.087-0.1425-0.13459-0.20599-0.0554-0.0672-0.10294-0.10285-0.11084-0.20972-8e-3 -0.10687 0.0515-0.10285-0.0435-0.19391-0.091-0.0911-0.19794-0.10687-0.20587-0.22552-8e-3 -0.12267 0.0198-0.15054-0.0276-0.22179-0.0515-0.0753-0.0712-0.0991-0.1069-0.21776-0.0356-0.12267-0.0435-0.13474-0.0792-0.25339-0.0356-0.12267-0.0436-0.15053-0.0792-0.22954-0.0356-0.079-0.0317-0.0474-0.0713-0.22178-0.0435-0.18214-0.1148-0.20196 0.0276-0.20196 0.14649 0 0.21377 0.0201 0.32859 0.0356 0.1148 0.0115 0.36818 0.0514 0.43548 0.0951 0.0712 0.0437 0.1148 0.11865 0.23752 0.13072 0.11877 0.0201 0.26129 0.083 0.42361 0.11491 0.15835 0.0437 0.14649 0.0474 0.21773 0.10285 0.0752 0.0595 0.1346 0.0871 0.2138 0.0911 0.0792 9e-3 0.15439 0.0672 0.22963 0.14651 0.0713 0.079 0.095 0.1109 0.14252 0.19794 0.0515 0.0871 0.11483 0.1425 0.16628 0.17036 0.0475 0.0316 0.1069 0.11492 0.1346 0.18214 0.0276 0.0635 0.0791 0.1899 0.13855 0.20599 0.0554 0.0115 0.0633 0.0988 0.1069 0.16633 0.0436 0.0635 0.095 0.16232 0.1267 0.16634 0.0276 9e-3 0.0276 0.10285-0.0118 0.11865m-7.8426 2.2803c0.0158-0.10285 0.0594-0.13847 0.13856-0.21776 0.0792-0.0793 0.28108-0.10687 0.34443-0.17812 0.0594-0.0672 0.15438-0.0793 0.22962-0.15456 0.0673-0.083 0.0792-0.0991 0.19794-0.12267 0.12273-0.0287 0.28108-0.10687 0.32463-0.13473 0.0436-0.023 0.1069-0.0514 0.19398-0.0793 0.091-0.0287 0.2217-9e-3 0.31671-0.0514 0.095-0.0474 0.0554 0.0356 0.15045 0.0437 0.095 9e-3 0.32067-9e-3 0.47111-0.0437 0.15046-0.0356 0.46715-0.0514 0.54633-0.0356 0.0792 0.0201 0.15043 0.0712 0.2217 0.0356 0.0673-0.0356 0.16232-9e-3 0.33255 0.0514 0.16628 0.0635 0.70073 0.28901 0.87492 0.35236 0.17814 0.0595 0.16628 0.12267 0.26128 0.15829 0.099 0.0356 0.17025 0.079 0.26525 0.1583s0 0.12267 0.0871 0.18989c0.091 0.0753 0.0633 0.10688 0.17418 0.20972 0.1148 0.10687 0.12669 0.20599 0.15045 0.30878 0.0276 0.10687 0.13063 0.22954 0.0158 0.15054-0.11086-0.079-0.16628-0.1425-0.32067-0.1583-0.15835-0.0144-0.40381-0.11491-0.61759-0.15054-0.20983-0.0356-0.46319-0.0672-0.578-0.12267-0.14252-0.0672-0.58592-0.18214-0.72844-0.19794-0.13856-0.0201-0.24942-0.0115-0.3563-0.0396-0.1148-0.023-0.1346-0.0172-0.26525-0.0172-0.1346 0-0.29296 0.0554-0.36818 0.0712-0.0792 0.0201-0.20984-0.0632-0.24546 0.0287-0.0356 0.087-0.0633 0.15456-0.15439 0.10284-0.0831-0.0514-0.2098-0.10284-0.17021-9e-3 0.0316 0.0951 0.0158 0.16633 0.0158 0.20971 0 0.0437 0.12272 0.0514 0.19397 0.0356 0.0712-0.0144 0.22963-0.0437 0.33255-0.0287 0.10294 0.0201 0.25732 0.0356 0.38401-0.0172 0.1346-0.0554 0.18608 0 0.3088 0.0287 0.12273 0.023 0.19397-0.0554 0.25732 0.0437 0.0594 0.0951 0.15835 0.13071 0.30484 0.10687 0.15042-0.0316 0.29692 0.023 0.41172 0.0672 0.11084 0.0437 0.32463 0.12267 0.45528 0.15054 0.13459 0.023 0.3365 0.12669 0.45923 0.1741 0.12273 0.0514 0.20983 0.18616 0.30483 0.16633 0.099-0.0172 0.1069-9e-3 0.20984 0.0287 0.1069 0.0316 0.26525 0.0951-0.0158 0.20196-0.27712 0.10285-0.41173 0.13848-0.49091 0.18214-0.0792 0.0437-0.24545 0.12267-0.30879 0.1741-0.0594 0.0554-0.18211 0-0.32463 0.0115-0.13856 9e-3 -0.30484 0.0437-0.42756 0.0871-0.12273 0.0437-0.29296 0.0635-0.41569 0.0793-0.12273 0.0172-0.20587 0.0514-0.30483-0.0172-0.095-0.0712-0.49091-0.21374-0.65718-0.21374-0.16628 0-0.26525-0.0595-0.28108-0.0871-0.0198-0.023-0.15836-0.079-0.15836-0.079s-0.13459-0.0316-0.16628-0.0514c-0.0396-0.0201-0.19794-0.079-0.19794-0.079l-0.13855-0.0712s-0.10294-0.0951-0.21774-0.1741c-0.1148-0.0793-0.0871-0.11491-0.18607-0.16634-0.095-0.0554-0.1267-0.12267-0.21774-0.17812-0.0871-0.0514-0.19397-0.0514-0.17418-0.11089 0.0158-0.0635-0.0554-0.14651-0.1069-0.15829-0.0515-0.0115-0.10293-0.0115-0.15045-0.0632-0.0435-0.0514-0.0435-0.10284-0.0514-0.16633-8e-3 -0.0595-0.19398-0.11492-0.13856-0.23759"/>
   <path d="m105.21 138c0.0949 0.0396 0.13855 0.0951 0.17024 0.17812 0.0357 0.083 0.0198 0.0595 0.091 0.0201 0.0713-0.0396 0.0871 9e-3 0.16232 0 0.0792-9e-3 0.1069 0.0474 0.2019-0.0201 0.091-0.0595 0.0633-0.0951 0.0554-0.1741-8e-3 -0.0753-4e-3 -0.087 0.0316-0.15427 0.0396-0.0713 0.0238-0.0951 0.0158-0.18214-4e-3 -0.083-0.0673-0.0911-0.11876-0.16232-0.0515-0.0712-0.087-0.083-0.14253-0.0951-0.0594-0.0115-0.091-0.0396-0.17814-0.0396-0.0791 0-0.13066-0.0115-0.2138 0.0316-0.0831 0.0437-0.10293 0.0635-0.14252 0.12669-0.0357 0.0632-0.0713 0.11089-0.0713 0.19392 0 0.0172-0.0158 0.0437-0.0198 0.11089-8e-3 0.0712 0.0633 0.1267 0.15835 0.16634"/>
   <path d="m110.1 140.87c0.099 0.11492 0.17024 0.0871 0.26921 0.0871 0.10294 0 0.0752 0.0356 0.11084-0.0437 0.0316-0.087 0.0515-0.0554 0.14649-0.0951 0.091-0.0514 0.0831-0.0632 0.091-0.14651 0.0158-0.079-4e-3 -0.1267-0.0158-0.20972-8e-3 -0.079-0.0396-0.0911-0.095-0.14249-0.0554-0.0514-0.0712-0.0477-0.10293-0.10285-0.0316-0.0595-0.095-0.0396-0.14649-0.0753-0.0515-0.0396-0.0831-0.0396-0.1346-9e-3 -0.0515 0.0316-0.0831 0.0396-0.14648 0.0672-0.0634 0.023-0.0791 0.0287-0.0712 0.0793 0 0.0514-0.0158 0.0635-0.0554 0.12669-0.0396 0.0635-0.0396 0.0554-0.0396 0.15054 0.0158 0.13071 0.0158 0.0712 0.0594 0.17036 0.0436 0.0951 0.0357 0.0287 0.13063 0.14249"/>
   <path d="m113.89 142.75c-0.0476-0.0911-0.0276-0.15829-0.14649-0.16232-0.1148-9e-3 -0.1148 0-0.19004 0.0356-0.0752 0.0356-0.087-0.023-0.16231-0.0672-0.0752-0.0437-0.13856-0.11491-0.22963-0.16231-0.091-0.0437-0.26922-0.13072-0.38402-0.20972-0.11083-0.0753-0.13063-0.083-0.24149-0.0595-0.1148 0.023-0.13459-0.0514-0.20587-0.0991-0.0792-0.0437-0.17815-0.0595-0.26129-0.0911-0.0791-0.0287-0.2019 0-0.27315-0.0437-0.0673-0.0474-0.0791-0.0555-0.21377-9e-3 -0.13462 0.0474-0.27318-0.0316-0.40777-0.0316s-0.34047 0.0316-0.45923 0.0115c-0.11876-0.0287-0.50674 0.0356-0.61759 0.0287-0.1148-9e-3 -0.289 0.0595-0.41568 0.10687-0.13066 0.0437-0.0831 0.0514-0.17418 0.13847-0.0871 0.0951-0.12273 0.0316-0.22963 0.0555-0.10294 0.023-0.0239-0.0595-0.13066-0.023-0.1148 0.0396-0.14252 0.0951-0.21377 0.1425-0.0673 0.0554-0.10687 0.083-0.22963 0.12669-0.11876 0.0356-0.26918 0.19392-0.36421 0.32067-0.0871 0.12669-0.0831 0.10687-0.15442 0.24161-0.0752 0.13847-0.091 0.14249-0.15042 0.26918-0.0634 0.11865-0.0752 0.16232-0.14649 0.24535-0.0673 0.083-0.0871 0.0635-0.18211 0.14651-0.091 0.079-0.0515 0.0595-0.11876 0.10285-0.0634 0.0474-0.11087 0.0514-0.17418 0.0514-0.0594 0-0.0831 0.0632-0.15043 0.13848-0.0673 0.0712-0.0515 0.0514-0.12669 0.11089-0.0752 0.0635-0.0752 0.0396-0.14649 0.0635-0.0673 0.0201-0.0436 0.0753-0.12272 0.12669-0.0712 0.0514-0.11084 0.0672-0.14649 0.12267-0.0357 0.0514-0.0475-0.0144-0.11084 3e-3 -0.0712 0.023-0.11876 0.1267-0.15835 0.19794-0.0475 0.0672-0.087 0.0437-0.16231 0.0555-0.0791 3e-3 -0.0673 0.0287-0.11087 0.11089-0.0475 0.083-0.0554 0.0672-0.099 0.10687-0.0475 0.0396-0.0633 9e-3 -0.17024 0.0514-0.10294 0.0437-0.13459 0.0753-0.15045 0.11491-0.0118 0.0396-0.0791 0.0871-0.17025 0.1425-0.091 0.0514-0.17024 0.13444-0.25732 0.21776-0.095 0.083-0.39589 0.33253-0.50674 0.48298-0.1148 0.15054-0.15441 0.0911-0.22566 0.18214-0.0791 0.0871-0.16628 0.1425-0.28108 0.30088-0.1148 0.15829-0.11876 0.14651-0.16628 0.18989-0.10294 0.10687-0.0949 0.10285-0.21774 0.23759-0.11876 0.13847-0.0791 0.12267-0.17024 0.20598-0.091 0.083-0.0594 0.17007-0.20191-0.0287-0.0475-0.0554-0.0515-0.11089-0.099-0.18616-0.0436-0.079-0.091-0.023-0.091-0.11865 0-0.0871-0.0396-0.12669-0.11084-0.23758-0.0673-0.11492-0.0594-0.0753-0.0158-0.1583 0.0475-0.083 0.0396-0.079 0.13462-0.17409 0.10294-0.0988 0.1346-0.1741 0.18211-0.27321 0.0476-0.0988 0.091-0.1741 0.15442-0.3088 0.0594-0.13848 0.0712-0.1267 0.0633-0.23759-4e-3 -0.10285-0.0118-0.11089 0.0633-0.13474 0.0752-0.0201 0.14649-0.17409 0.25336-0.2574 0.1148-0.083 0.15835-0.18617 0.21377-0.31274 0.0515-0.13072 0.11483-0.25339 0.21773-0.39195 0.099-0.13474 0.12273-0.14651 0.22566-0.20972 0.095-0.0595 0.20191-0.22954 0.29297-0.3009 0.091-0.0753 0.2019-0.11089 0.26525-0.079 0.0673 0.0316 0.0713 0.0396 0.16232 0.0356 0.091-9e-3 0.095 3e-3 0.13459 0.0753 0.0396 0.0672 0.13856 0 0.19004-0.0514 0.0515-0.0514 0.0791-0.0635 0.21773-0.10687 0.13856-0.0437 0.1148 0.0396 0.18211-0.0356 0.0712-0.0753 0.16629-0.21374 0.30088-0.28901 0.13855-0.0753 0.30483-0.31274 0.38005-0.44736 0.0752-0.13474 0.3563-0.4236 0.41569-0.51068 0.0594-0.0911 0.15835-0.17409 0.27712-0.28901 0.12272-0.11491 0.15441-0.21776 0.24942-0.4236 0.099-0.20598 0.13855-0.24161 0.18211-0.38402 0.0436-0.14249 0.0198-0.0951 0.087-0.22954 0.0673-0.13473 0.0238-0.19391 0.0118-0.28096-0.0158-0.083-0.0158-0.14652-8e-3 -0.25339 8e-3 -0.10687 0.0357-0.16634 0.0752-0.25338 0.0396-0.0911 0.0238-0.13072-4e-3 -0.18214-0.0357-0.0554-0.0555-0.10687-0.0357-0.18214 0.0276-0.0753-0.0198-0.13445-0.0476-0.18214-0.0316-0.0437 0-0.0951 0-0.19392 0-0.10285-0.0198-0.12669-0.099-0.20598-0.0752-0.0871-0.0752-0.0595-0.11877-0.14652-0.0396-0.083-0.0554-0.14651-0.17418-0.22552-0.11876-0.0793-0.11876 9e-3 -0.22566 0.10285-0.11087 0.0871-0.1267 0.0793-0.20587 0.0793-0.0712 0-0.091 0.0595-0.2138 0.11865-0.13063 0.0595-0.14252 0.0871-0.29692 0.21776-0.15042 0.13847-0.12669 0.0713-0.23356 0.12267-0.11087 0.0474-0.12669 0.0316-0.27712 0.13848-0.15045 0.11089-0.2019 0.0672-0.38797 0.20971-0.18607 0.1425-0.24149 0.1109-0.36026 0.25339-0.1148 0.13847-0.12669 0.12669-0.15045 0.24936-0.0238 0.1267 0 0.0356 0 0.10285 0 0.0672-0.0752 0.083-0.13459 0.21776-0.0594 0.13474-0.0831 0.0753-0.0436 0.20197 0.0436 0.12669-0.0554 0.0554-0.15835 0.14249-0.0475 0.0437-0.1069 0.0595-0.13459 0.22581-0.0276 0.17036-0.0594 0.11491-0.091 0.26918-0.0316 0.15054 0 0.0793-0.0239 0.12267-0.0238 0.0437-0.0198 0.0437-0.0357 0.11865-0.0158 0.0753 0.0276 0.0437-0.0238 0.11865-0.0515 0.0753-0.0831 0.0871-0.091 0.17812-0.0118 0.0911-0.0276 0.11491-0.0515 0.15829-0.0276 0.0397-0.0436 0.0514-0.0436 0.13474 0 0.083 0.0158 0.11492 0 0.1741-0.0158 0.0595-0.0158 0.17036 0 0.2258 0.0158 0.0595-8e-3 0.13072-8e-3 0.21374 0 0.083-8e-3 0.10687-8e-3 0.10687s-0.0158 0.0477 0 0.0911c0.0158 0.0437 0.0673 0.0287 0.0752 0.0595 8e-3 0.0356 0.0238 0.13445 8e-3 0.17812-0.0158 0.0396-0.0673 0.0753-0.13459 0.13474-0.0673 0.0595-0.15046 0.20598-0.20191 0.29297-0.0475 0.083-0.091 0.14249-0.15835 0.30481-0.0633 0.15829-0.12669 0.1899-0.14649 0.25741-0.0118 0.0672 0 0.0753-0.0712 0.14249-0.0752 0.0672-0.0752 0.0514-0.1346 0.083-0.0594 0.0356-0.0436 0.0672-0.12669 0.14249-0.0831 0.0753-0.091 0.10285-0.13066 0.21776-0.0436 0.11865-0.1069 0.18616-0.14649 0.26919-0.0396 0.083-0.0594 0.083-0.0831 0.20196-0.0238 0.11492-0.0673 0.11089-0.16231 0.1741-0.091 0.0672-0.0712 0.0595-0.15836 0.13847-0.0831 0.0753-0.0316-0.0951-0.0316-0.21374 0-0.11492-0.0238-0.10687-8e-3 -0.20972 0.0158-0.0951-0.0238-0.0951-0.0515-0.1741-0.0238-0.0753 0.0158-0.13071-0.0357-0.19794-0.0515-0.0712-4e-3 -0.087 0.0238-0.079 0.0396 9e-3 0.0476-0.0672 0.0476-0.0672l-8e-3 -0.11865s-0.0436-0.10687-0.0515-0.1583c-8e-3 -0.0514 8e-3 -0.13071 0.0316-0.20196 0.0276-0.0672 0.0357-0.11865 0-0.19392-0.0316-0.0753-0.0198-0.083 0.0276-0.18989 0.0396-0.1109 0.0118-0.17812 0.0118-0.25741 0-0.0951-0.0118-0.13474 4e-3 -0.1899 0.0198-0.0672 0.0396-0.15053 0.0238-0.18989-0.0158-0.0437-8e-3 -0.079-0.0238-0.19794-0.0158-0.11492-4e-3 -0.13474 0.0118-0.24937 0.0158-0.17811-0.0276-0.17007 0.0238-0.30087 0.0475-0.12669 0-0.083 0.0396-0.3286 0.0436-0.24534 8e-3 -0.14249 0.10294-0.20972 0.091-0.0635 0.1148-0.16634 0.23359-0.30087 0.11876-0.13474 0.0633-0.15054 0.12669-0.18616 0.0594-0.0316 0.091-0.0753 0.18211-0.18214 0.095-0.11089 0.0831-0.0753 0.14253-0.12669 0.0594-0.0474 0.0831-0.0672 0.10293-0.14652 0.0158-0.0712 0.0673-0.18214 0.087-0.27321 0.0276-0.0911 0.0712-0.15829 0.12273-0.23356 0.0475-0.0753 0.0752-0.13474 0.0594-0.20196-0.0198-0.0712-0.0118-0.15456 0.0158-0.24535 0.0238-0.0911 0.0396-0.10284 0.0238-0.18616-0.0158-0.083-8e-3 -0.11491 0.0158-0.22178 0.0276-0.11089 8e-3 -0.13072 0.0276-0.21776 0.0118-0.0951 0.0515-0.1109 0.0396-0.16634-8e-3 -0.0437 0-0.11865-8e-3 -0.23357-8e-3 -0.10687 0.0357-0.13847 0.0198-0.2416-0.0198-0.0991 0-0.1425 4e-3 -0.24535 0.0118-0.0991-0.0158-0.15053-0.0238-0.2574-8e-3 -0.1109-0.0515-0.1741-0.0831-0.24535-0.0316-0.0635-0.0673-0.16633-0.091-0.20598-0.0276-0.0437-0.0673-0.13847-0.0792-0.19794-4e-3 -0.0555-4e-3 -0.0555-0.0475-0.15054-0.0436-0.0911-0.10294-0.14249-0.16232-0.2574-0.0554-0.11865-0.0316-0.15456-0.099-0.21777-0.0633-0.0672-0.091-0.0753-0.1267-0.16231-0.0316-0.083-0.12273-0.1583-0.17814-0.22581-0.0475-0.0672-0.0316-0.10687-0.1069-0.14249-0.0752-0.0356-0.0831-0.15054-0.091-0.21777-0.0118-0.0712-0.1148-0.19391-0.19401-0.25338-0.0752-0.0595-0.1069-0.0911-0.14252-0.15054-0.0316-0.0555-0.0316-0.0988-0.0158-0.18214 0.0158-0.0871-0.0476-0.15456-0.091-0.24534-0.0396-0.0911-0.1346-9e-3 -0.19794 0.0287-0.0555 0.0316-0.10294 0.10687-0.13856 0.16634-0.0316 0.0554 0 0.11089-0.0118 0.20196-4e-3 0.0911-0.0555 0.13071-0.099 0.18214-0.0396 0.0514-0.10293 0.13473-0.10293 0.13473s-0.0792 0.11865-0.12273 0.19392c-0.0436 0.0753-0.099 0.12669-0.15835 0.1583-0.0633 0.0356 0 0.0514-0.099 0.17811-0.1069 0.12267-0.1148 0.1741-0.18607 0.29691-0.0752 0.1109-0.15442 0.22954-0.19398 0.30484-0.0396 0.0753-0.0673 0.21776-0.099 0.28499-0.0357 0.0672-0.11876 0.14651-0.11876 0.14651l-0.0673 0.11492-0.0239 0.18616s-0.0831 0.20972-0.15045 0.34046c-0.0673 0.13847-0.0198 0.083-0.0198 0.083s-4e-3 0.083-0.0476 0.17409c-0.0436 0.0911-0.0316 0.10687-0.0515 0.22581-0.0158 0.11491-0.0158 0.19794-4e-3 0.29691 0.0118 0.0951-0.0118 0.12669-0.0475 0.26143-0.0357 0.13445-0.0198 0.0911 0.0158 0.15054 0.0276 0.0595 0.0198 0.0437 0.0276 0.0911 4e-3 0.0514 0.0436 0.13473 0.0554 0.18616 8e-3 0.0554 0.0475 0.16634 0.0713 0.20972 0.0238 0.0396 0.0158 0.087 0.0198 0.16633 4e-3 0.079-0.0158 0.0988 0.0554 0.14652 0.0752 0.0514 8e-3 0.0871 8e-3 0.17812 0 0.0871-0.0118 0.083 0 0.16634 0.0158 0.087 0.0396 0.0672 0.091 0.13473 0.0554 0.0672 0.0594 0.0437 0.0594 0.0991 0 0.0514-0.0158 0.0474 0.0158 0.11865 0.0316 0.0753 0.0515 0.0991 0.095 0.17811 0.0436 0.0793 0.0633 0.1267 0.10293 0.19392 0.0436 0.0672 0.0752 9e-3 0.1069 0.0672 0.0276 0.0514 0.0949 0.087 0.17025 0.15829 0.0791 0.0632 0.1069 0.0595 0.17814 0.0632 0.0752 9e-3 0.11084 0.0287 0.18211 0.023 0.0633-3e-3 0.11877-0.0287 0.18608-0.0474 0.0633-0.0201-0.0118-0.13071-0.0554-0.20971-0.0396-0.0712-0.0554-0.0911-0.091-0.17037-0.0475-0.079-0.0276-0.11089-0.0633-0.13445-0.0396-0.023-0.0712 0.0356-0.0831 3e-3 -0.0158-0.0287-0.0515-0.0555-0.1069-0.0991-0.0554-0.0437-0.099-0.087-0.17024-0.11089-0.0633-0.023-0.095-0.11491-0.13459-0.16231-0.0436-0.0514-0.0198-0.0911-0.0276-0.14652-4e-3 -0.0554-0.0158-0.0991-0.0238-0.1741-8e-3 -0.083 0-0.11491-0.0316-0.14249-0.0316-0.0201-0.0357-0.0911-0.095-0.16232-0.0633-0.0712-0.087-0.0514-0.0515-0.11089 0.0238-0.0595 0.0316-0.10687 0.0276-0.23758-8e-3 -0.1267-0.0436-0.13474-0.0673-0.23357-0.0238-0.10284-0.0633-0.0437-0.11876-0.15829-0.0515-0.11491 0.0238-0.13474 0.0554-0.32067 0.0396-0.19018-4e-3 -0.0753 0.0396-0.16232 0.0396-0.0911 0.0476-0.11089 0.1148-0.19794 0.0633-0.083 0.0436-0.11089 0.091-0.22954 0.0476-0.11491 0.0594-0.18616 0.10294-0.29691 0.0436-0.10687 0.0554-0.0753 0-0.15053-0.0554-0.079 0.0515-0.079 0.12669-0.0951 0.0792-0.0201 0.0792-0.0672 0.10293-0.15829 0.0276-0.0911 0.0713-0.12267 0.1267-0.24534 0.0594-0.11865 0.0633-0.11865 0.091-0.20972 0.0316-0.0911 0.087-0.13847 0.17814-0.21776 0.087-0.083 0.0633-0.083 0.0752-0.13072 8e-3 -0.0396-0.0118-0.0514 0.0436-0.11865 0.0633-0.0672 0.0515-0.0712 0.1069-0.14249 0.0633-0.0635 0.095-0.11492 0.2019-0.22954 0.10687-0.11492 0.0712-0.0514 0.0752-3e-3 0.0238 0.0474 0.0238 0.0753 0.0673 0.17036 0.0555 0.0951 0.0476 0.0635 0.0752 0.11864 0.0276 0.0555 0.0633 0.1109 0.0673 0.16634 8e-3 0.0555 0.0436 0.1267 0.0791 0.17036 0.0357 0.0437 0.099 0.1425 0.13065 0.18616 0.0396 0.0396 0.0594 0.0555 0.0673 0.0951 0.0158 0.0356 0.0316 0.0951 0.0673 0.19391 0.0357 0.10687 0.091 0.13072 0.13065 0.28901 0.0316 0.1583 0.0831 0.16232 0.14649 0.26919 0.0594 0.11089 0.0436 0.14249 0.0673 0.29295 0.0158 0.15427 0.0198 0.16633 0.0396 0.2969 0.0198 0.13445 0.0476 0.0672 0.0554 0.15428 4e-3 0.0911 0 0.16231 0.0238 0.24936 0.0238 0.0911 0.0118 0.13072 0 0.26919-0.0158 0.13847 0.0357 0.13071 0.0554 0.20196 0.0198 0.0712 0.0198 0.22954 0 0.30484-0.0198 0.0672-0.0357 0.0712-0.0515 0.15427-0.0118 0.083-0.0238 0.17036 0.0158 0.25741 0.0316 0.083 0.0158 0.079-0.0554 0.13847-0.0752 0.0595-0.0831 0.0635-0.16232 0.14249-0.0831 0.079-0.099 0.10285-0.15045 0.18214-0.0475 0.0793-0.091 0.11865-0.12273 0.15054-0.0396 0.0396-0.0752 0.0287-0.15835 0.13847-0.0871 0.10687-0.0752-0.0287-0.0871-0.11865-0.0118-0.0911-0.0316-0.0672-0.0712-0.13445-0.0436-0.0635 4e-3 -0.0287-0.0555-0.0712-0.0594-0.0437-0.0436-0.0672-0.0871-0.13474-0.0396-0.0672-0.0316-0.0595-0.0475-0.14249-0.0118-0.0911-0.0396-0.10285-0.0515-0.13072-0.0238-0.0201-0.0276-0.0595 0.0118-0.13071 0.0475-0.0753 0.0198-0.0635 0.0239-0.14652 4e-3 -0.0871 4e-3 -0.0635-0.0276-0.10687-0.0158-0.0514-0.0633-0.083-0.11086-0.13071-0.0357-0.0474-0.0475-0.0474-0.0239-0.13474 0.0357-0.083 0.0357-0.13072 0.0476-0.20196 0.0118-0.0753 0.0158-0.0911 0.0436-0.13474 0.0276-0.0437 0.0276-0.0911 0-0.13071-0.0198-0.0356-0.0357-0.0753-0.0752-0.1425-0.0238-0.0672-0.0316-0.0712-0.0871-0.023-0.0476 0.0514-0.0712 0.083-0.0831 0.18616-8e-3 0.10687-8e-3 0.0911-0.0594 0.15829-0.0515 0.0672-0.0555 0.11492-0.10294 0.21777-0.0475 0.10284-0.0276 0.0988-0.0276 0.21776 0 0.12267 0 0.0991-4e-3 0.20196-4e-3 0.10285 0.0118 0.0951 0.0238 0.17812 0.0118 0.0753 0.0357 0.0396 0.0476 0.13071 0.0158 0.0911 0.0316 0.11492 0.0316 0.19392s0.0316 0.0951 0.0673 0.22954c0.0357 0.13474 0.0475 0.1583 0.0831 0.26919 0.0238 0.10687 0.0436 0.26919 0.0633 0.36818 0.0198 0.0991 0.0396 0.11865 0.0476 0.19794 0 0.079-0.0198 0.0712-0.0476 0.17036-0.0357 0.10285 0 0.083 8e-3 0.17008 8e-3 0.083 0.0316 0.0477 0.0316 0.13847 0 0.0951-0.0396 0.0396-0.087 0.16232-0.0515 0.13071-8e-3 0.0911-8e-3 0.18989 0 0.0988-4e-3 0.51467-8e-3 0.58199-8e-3 0.0911 0.0357 0.24936 8e-3 0.29688-0.0316 0.0474-0.0515 0.44342-0.0436 0.52656 4e-3 0.0871-0.0316 0.26919-0.0238 0.34046 0.0118 0.0753 4e-3 0.0991-0.0158 0.1583-0.0239 0.0635-0.0118 0.0712-0.0158 0.15054-8e-3 0.0793 0.0158 0.36818 4e-3 0.4236-0.0118 0.0554-0.0198 0.0554-4e-3 0.12669 8e-3 0.0635 4e-3 0.0555-0.0396 0.13474-0.0436 0.0793 0.0198 0.0753 0.0396 0.17036 0.0158 0.0991 4e-3 0.12669-0.0276 0.24161-0.0316 0.11865 0.0436 0.14249 0.0515 0.23356 4e-3 0.0911 0.0554 0.12669 0.0357 0.22954-0.0118 0.10285 0 0.13847-0.0238 0.20972-0.0198 0.0753 0.11877 0.0396 0.1267 0.12669 8e-3 0.0951 0.0396 0.1425 0.0475 0.23759 0.0158 0.0991 0.0476 0.0911 0.14649 0.12669 0.10293 0.0396 0.0554 0.023 0.0554 0.11492 0 0.0911 8e-3 0.0911 0.0276 0.20971 0.0158 0.11492 0.0198 0.0437 0.0515 0.1267 0.0357 0.0753 0.0276 0.083 0.0515 0.15053 0.0198 0.0672 0.1148 0.079 0.17024 0.20197 0.0515 0.11865 0.0436 0.0753 0.11877 0.13071 0.0712 0.0555 0.0712 0.0635 0.10293 0.17036 0.0316 0.10687 0.0752 0.13072 0.15439 0.12669 0.0752-3e-3 0.11086-0.0316 0.095 0.13474-0.0198 0.17036-0.0276 0.13474-0.1069 0.30484-0.0831 0.16634-0.0713 0.15054-0.0831 0.25741-0.0158 0.11089 0.0357 0.12669 0.12272 0.28499 0.0831 0.16231 0.0316 0.13071 0.0239 0.26114-0.0158 0.13474-0.0357 0.11865 8e-3 0.22178 0.0396 0.0911 0.0238 0.0712-0.0238 0.20972-0.0476 0.13847-0.0276 0.12267-0.0198 0.24534 4e-3 0.13072 0.0357 0.0871-8e-3 0.25741-0.0357 0.17036-0.0357 0.16232-0.0791 0.28499-0.0396 0.12267 0.0198 0.0437 0.0594 0.12267 0.0316 0.079-0.0276 0.11491-0.0515 0.27321-0.0198 0.15829-0.0316 0.14249-0.0436 0.29294-4e-3 0.1425 0.0276 0.10285 0.0118 0.23759-0.0118 0.13474-0.0357 0.16232-0.0515 0.28096-0.0198 0.11492-0.0276 0.15054-0.0158 0.32064 0.0158 0.17036-0.0118 0.16232-0.0276 0.26919-0.0198 0.11089-0.0118 0.0753 0.0276 0.16232 0.0436 0.083 0.0436 0.0991 0.0158 0.25338-0.0316 0.15054-0.0158 0.1267-0.0198 0.21777-8e-3 0.087 0.0118 0.0712-0.0198 0.21776-0.0276 0.14651 0.0198 0.15456 8e-3 0.23758-0.0118 0.083-0.0118 0.083 0.0118 0.23357 0.0238 0.15427 0.0118 0.18989-0.0238 0.30087-0.0357 0.10687-8e-3 0.0793 0.0238 0.26517 0.0316 0.18989-0.0316 0.44736-0.0238 0.74823 4e-3 0.29295 0 0.25741-8e-3 0.43547-8e-3 0.17036 0 0.11491-0.0158 0.20598-0.0198 0.0871 0.0158 0.0712 0.0515 0.13474 0.0396 0.0555 0.0276 0.0911 0.0158 0.20972-0.0158 0.11865 0 0.0753-0.0316 0.18214-0.0316 0.10285 0.0316 0.0474 0.0594 0.17036 0.0357 0.11865 0.0118 0.15054 0.0475 0.28096 0.0276 0.13474 0.0276 0.10285 0.0515 0.16232 0.0238 0.0514 8e-3 0.0555-0.0396 0.13072-0.0357 0.0753-4e-3 0.0672 0.0792 0.14651 0.087 0.079 0.0515 0.0712 0.11876 0.14249 0.0673 0.079 0.0238 0.0514 0 0.083-0.0276 0.0287-0.0712 0.0287-0.0316 0.0753 0.0436 0.0514 0.0594 0.0635 0.1148 0.12267 0.0673-0.0474 0.11877-0.023 0.15439-0.023 0.0396 0 0.091 0 0.18608 0.0635 0.0831 0.0595 0.091 0.023 0.19397 0.0514 0.099 0.0316 0.21774 0.0991 0.26129 0.13474 0.0475 0.0396 0.2019 0.0396 0.32463 0.0632 0.12272 0.0201 0.091-0.0554 0.0396-0.17812-0.0554-0.11864 4e-3 -0.15053-0.0118-0.26918-0.0118-0.12267-0.0436-0.1267-0.11083-0.23357-0.0791-0.10284-0.0713-0.11491-0.0713-0.18213 0-0.0672 0-0.0793-0.0554-0.1583-0.0515-0.0753-0.0515-0.13071-0.1148-0.20196-0.0633-0.079-0.0633-0.17007-0.14253-0.28097-0.0831-0.11491-0.0633-0.11865-0.0752-0.21776-0.0158-0.10285 0-0.13847 0-0.30087 0-0.15428-0.0238-0.30484 0.0118-0.41174 0.0436-0.10285 0.0158-0.13445-0.0276-0.17007-0.0475-0.0396-0.0475-0.13474-0.0752-0.27724-0.0316-0.13847-0.0476-0.15427-0.0791-0.32069-0.0396-0.16634-0.0316-0.1267-0.0396-0.24161s-0.0198-0.1899-0.0633-0.30087c-0.0357-0.11492-0.0276-0.1741-0.0594-0.28898-0.0316-0.11492 0.0158-0.13474 0.0791-0.20197 0.0555-0.0712 0.0158-0.11491 4e-3 -0.22178-4e-3 -0.10687 0-0.19018-4e-3 -0.29694-0.0118-0.11491-0.0118-0.13474 0-0.20598 4e-3 -0.0753 4e-3 -0.13072 0-0.21374-0.0118-0.0871-0.0118-0.10687 0-0.21777 4e-3 -0.11491-0.0118-0.10284 4e-3 -0.22178 0.0198-0.11865 0.0238-0.1583 0.0594-0.27723 0.0357-0.12267 0.0198-0.15054-8e-3 -0.3207-0.0198-0.16231 0.0198-0.19392 0.0515-0.23758 0.0396-0.0474 0.0554-0.0474 0.0396-0.17812-0.0158-0.12669 0.0238-0.13474 0.0158-0.21776-8e-3 -0.0793 0.0357-0.12267 0.0238-0.26919-0.0158-0.15427 0.0357-0.15829 0.1148-0.26919 0.0752-0.10285 0.0633-0.12267 0.0357-0.16231-0.0276-0.0356-0.0316-0.083-0.0357-0.18214-8e-3 -0.0991 0.0357-0.0991 0.0118-0.20196-0.0198-0.10687 0-0.11492 0-0.22955 0-0.11491 0.0158-0.083 0.0316-0.2258 0.0158-0.1425-8e-3 -0.16634 0-0.26517 8e-3 -0.0991 0.0198-0.14249 0.0831-0.20972 0.0594-0.0672 0-0.11491-0.0475-0.23758-0.0436-0.11865-0.0436-0.16232-0.099-0.29691-0.0515-0.13847 0-0.16232-0.0158-0.26919-0.0118-0.10285-0.0436-0.0951-0.0949-0.20972-0.0554-0.11089-0.0752-0.0595 0.0198-0.15829 0.10293-0.0991 0.12273-0.16634 0.19004-0.27321 0.0712-0.10285 0.0238-0.0672 0.0396-0.12669 0.0158-0.0595 0.0831-0.083 0.15439-0.13847 0.0673-0.0514 0.0791-0.1109 0.11877-0.21777 0.0396-0.10284 0.0594-0.10284 0.16231-0.15427 0.1069-0.0554 0.13066-0.023 0.25336-0.023 0.12273 0 0.194 9e-3 0.27711 0.0753 0.0831 0.0672 0.1069 0.0287 0.20191-9e-3 0.087-0.0396 0.13856-0.0316 0.22963 9e-3 0.087 0.0396 0.1148 0.0396 0.23752 0.0396 0.1148 0 0.11084 0.0437 0.17815 0.0115 0.0673-0.0316 0.26525 0.0437 0.3563 0.0753 0.091 0.0316 0.0594 0.0356 0.0396 0.1425-0.0276 0.10687 0.0198 0.13445 0.0238 0.21374 0.0118 0.0753 0.0436 0.10285 0.0316 0.19392-4e-3 0.0911 0.0791 0.12267 0.12273 0.15829 0.0436 0.0356 0.11483 0.0991 0.11483 0.1899 0 0.0911 0.095 0.14249 0.14252 0.21776 0.0436 0.079 0.19794 0.17812 0.29296 0.29694 0.099 0.11865 0.18607 0.14249 0.25732 0.22178 0.0791 0.0871 0.13856 0.0948 0.2138 0.13445 0.0752 0.0356 0.15042 0.12669 0.24545 0.16232 0.10294 0.0396 0.19398 0.0635 0.28109 0.0911 0.091 0.0316 0.29691 0.0911 0.39588 0.11089 0.095 0.0115 0.17025 0.0287 0.22566 0.0437 0.0555 0.0144 0.16628 0.0316 0.20981 0.0712 0.0436 0.0474 0.96201 0.023 1.0808 0.0396 0.12273 0.0144 0.31672-0.0316 0.38006-0.0172 0.0594 0.0172 0.23753-0.0474 0.29296-0.0713 0.0515-0.0316 0.28504-0.11864 0.38797-0.10284 0.11086 0.0172 0.10293-0.0172 0.15441-0.0595 0.0555-0.0437 0.0673 9e-3 0.0831-0.0753 0.0158-0.083-0.0276-0.12669-0.1267-0.19392-0.10293-0.0712 0-0.0635-0.0475-0.12267-0.0436-0.0595-0.0198-0.0753-0.0276-0.15829-8e-3 -0.083 0-0.10687 8e-3 -0.22552 8e-3 -0.12267-0.0158-0.10687-0.0831-0.16634-0.0673-0.0635-0.0791-0.0793-0.13066-0.15456-0.0515-0.0713 0-0.079-0.0158-0.20196-0.0118-0.12267-0.0673-0.1267-0.14252-0.20196-0.0752-0.0753-0.0752-0.10687-0.18211-0.20599-0.1069-0.0991-0.26525-0.23356-0.32464-0.26143-0.0594-0.0356-0.0515-0.15427-0.16628-0.18989-0.11084-0.0396-0.34047-0.19794-0.39985-0.23357-0.0633-0.0396-0.35235-0.13473-0.4434-0.19794-0.091-0.0595-0.44736-0.0554-0.55425-0.0672-0.10293-0.0172-0.45131-0.0753-0.59382-0.0555-0.14253 0.023-0.17815 0.0172-0.28109 0.0397-0.10689 0.023-0.23359 9e-3 -0.37609 0.0672-0.14252 0.0595-0.29692-9e-3 -0.46319 0.0144-0.16232 0.023-0.3365 9e-3 -0.41569 0.023-0.0752 0.0172-0.20983 0-0.28108-0.0172-0.0673-0.0172-0.17024-0.0672-0.29296-0.0554-0.11876 0.0201-0.23752-0.0437-0.28108-0.0437-0.0396 0-0.13459-0.023-0.16628-0.023-0.0276 0 0.0594-0.0595-0.18607-0.0356-0.24942 0.0201-0.28901-0.023-0.20587-0.0712 0.0831-0.0437 0.091-0.13848 0.19004-0.20972 0.099-0.0672 0.17814-0.1267 0.28504-0.22552 0.091-0.10285 0.1148-0.14652 0.17421-0.19794 0.0594-0.0514 0.18211-0.16634 0.19794-0.19392 0.0158-0.0316 0.0158-0.0991 0.10294-0.1741 0.0791-0.0753 0.23753-0.16633 0.31275-0.2258 0.0752-0.0635 0.15045-0.16634 0.23356-0.19794 0.0831-0.0316 0.1069-0.0474 0.18211-0.11089 0.0752-0.0713 0.14649-0.11492 0.4434-0.25339 0.30484-0.13474 0.22566-0.0672 0.31275 0.0514 0.0831 0.12268 0.15045 0.0555 0.24942 0.12268 0.095 0.0672 0.19001 0.13847 0.29692 0.18213 0.1148 0.0437 0.20587 0.1425 0.32067 0.19794 0.11479 0.0514 0.27315 0.0115 0.41965-0.0144 0.14252-0.0287 0.17021-0.0396 0.29295-0.0911 0.11877-0.0514 0.14649 0.0514 0.27315 0.0514 0.11877 0 0.21774 0.0753 0.30087 0.0672 0.0791-3e-3 0.24943 0.023 0.36819 0.0316 0.12273 9e-3 0.19004-0.0356 0.26129-0.0316 0.0633 9e-3 0.32066-0.0201 0.41964-0.10285 0.095-0.087 0.0712-0.0635 0.2217-0.11865 0.15835-0.0635 0.18607-0.11089 0.34838-0.20196 0.17025-0.0871 0.35235-0.10285 0.51862-0.17036 0.16628-0.0672 0.18211-0.15054 0.31671-0.15829 0.13459-9e-3 0.17025-0.12268 0.36818-0.26517 0.19794-0.14249 0.55425-0.51071 0.65718-0.58988 0.1069-0.0713 0.19397-0.11865 0.31671-0.18616 0.12273-0.0713 0.14649-0.11492 0.20587-0.20599 0.0594-0.0871-0.0158-0.10687-0.0594-0.19794m-8.9353-0.62947c0.0396-0.10687 0.0634-0.083 0.0634-0.23758 0-0.15054 0-0.13848 0.0198-0.28097 0.0198-0.13847-0.0238-0.0753 0.0436-0.19392 0.0713-0.12267 0.0713-0.16231 0.14649-0.21374 0.0792-0.0474 0.11086-0.0911 0.12273-0.14249 0.0118-0.0514 0.0357-0.0911 0.12669-0.13847 0.095-0.0554 0.12669 0 0.20191-0.1109 0.0673-0.11491 0.0633-0.0911 0.15438-0.19794 0.0831-0.10687 0.099-0.083 0.1267-0.14651 0.0198-0.0635 0.0158 0.0316 0.11876-0.0437 0.099-0.0793 0.1148-0.0951 0.17815-0.15829 0.0633-0.0672 0.12272-0.0396 0.23359-0.20197 0.11876-0.15427 0.22963-0.23356 0.36026-0.29691 0.12669-0.0632 0.15439-0.0437 0.26129-0.16231 0.099-0.11089 0.12669-0.0396 0.23356-0.12669 0.1069-0.0911 0.13063-0.27724 0.17418-0.13848 0.0357 0.13848 0.0396 0.1109 0.091 0.22581 0.0554 0.11491 0.0712 0.15054 0.0594 0.20196-0.0158 0.0514-0.0276 0.0871 0.0198 0.15054 0.0436 0.0635-0.0396-0.0287 0 0.14249 0.0357 0.1741-0.0476 0.0672 0.13065 0.26919 0.0633 0.0672-0.0316 0.22954-0.0633 0.3088-0.0316 0.083-0.0396 0.1741-0.0673 0.26517-0.0357 0.0871 0.0357 0.0437-8e-3 0.13473-0.0436 0.0991-0.0554 0.10688-0.10293 0.18214-0.0475 0.0753-0.0831 0.1267-0.091 0.19794-0.0158 0.0672-0.1148 0.1741-0.13856 0.25339-0.0198 0.0753 8e-3 0.083-0.0555 0.17036-0.0633 0.0951-8e-3 -3e-3 -0.1148 0.083-0.1069 0.0911-0.13065 0.11089-0.194 0.22178-0.0633 0.11491-0.099 0.13072-0.15835 0.20598-0.0555 0.0753-0.0555 0.0991-0.0871 0.1425-0.0357 0.0356-0.0357 0.079-0.12273 0.16231-0.0831 0.083-0.11876 0.0115-0.194 0.0951-0.0791 0.087-0.0594 0.13071-0.15439 0.15427-0.095 0.023-0.1069 0.0554-0.16232 0.11865-0.0633 0.0672-0.0633 0.0672-0.13063 0.0991-0.0673 0.0316-0.11876 0.0555-0.14252 0.0753-0.0357 0.0201-0.0436 0.0635-0.0871 0.023-0.0436-0.0356-0.0594-3e-3 -0.11876-0.0474-0.0554-0.0437-0.0238-0.079 0-0.15829 0.0276-0.0871 0.0238-0.13072 0.0831-0.16634 0.0554-0.0397 0.0594-0.0595 0.1148-0.13474 0.0475-0.0753 0.0752-0.11491 0.10294-0.11491 0.0357 0 0.0396-0.0287 0.0475-0.083 4e-3 -0.0595 0.0198-0.13847 0.0316-0.17036 0.0158-0.0356 0.0158-0.0172 0.099-0.0514 0.0791-0.0396 0.13066-0.0595 0.14252-0.0988 0.0118-0.0356 0-0.0555 0.0118-0.10285 0.0118-0.0437 0.11084-0.11089 0.12669-0.17007 0.0198-0.0555 0.0198-0.0474 0.0752-0.0991 0.0594-0.0514 0.11482-0.0991 0.14648-0.1741 0.0357-0.0753 0.0476-0.10285 0.11877-0.18214 0.0673-0.083 0.12272-0.10285 0.16628-0.15456 0.0436-0.0514 0.0594-0.0316 0.0831-0.13445 0.0238-0.0991 0.0791-0.18989-0.0633-0.12669-0.13856 0.0635-0.17421 0.13071-0.24942 0.18989-0.0831 0.0595-0.2019 0.17812-0.26919 0.20197-0.0633 0.0287-0.091 0.0554-0.17814 0.14249-0.0831 0.0871-0.13462 0.12669-0.22963 0.20598-0.095 0.0753-0.11083 0.13072-0.15439 0.16232-0.0594 0.0356-0.0831 0.0672-0.12272 0.17812-0.0475 0.11865-0.13066 0.26516-0.20984 0.36422-0.0752 0.10285-0.0831 0.16634-0.10293 0.21776-0.0198 0.0474-0.0357 0.0951-0.15043 0.17812-0.11482 0.083-0.194 0.19392-0.26525 0.13071-0.0118-0.0672-0.0198-0.087-0.0276-0.16231-4e-3 -0.0793 8e-3 -0.1109 0.0239-0.16634 8e-3 -0.0555 4e-3 -0.0437 8e-3 -0.18616 8e-3 -0.13847-8e-3 -0.13072-0.0357-0.20972-0.0276-0.0753-0.0357-0.0635 4e-3 -0.17036m2.2764 4.9526c0.0752-0.0287 0.11877 0.0172 0.19794 0.0172 0.0871 0 0.15045 0 0.2138 0.023 0.0673 0.0201 0.099 0.0474 0.20587 0.10285 0.1069 0.0595 0.16231 0.0753 0.24149 0.10285 0.0791 0.023 0.14649 0.0672 0.20587 0.11089 0.0555 0.0474 0.11876 0.0871 0.16232 0.1741 0.0515 0.083 0.15441 0.0396 0.22169 0.083 0.0673 0.0514 0.14253 0.14652 0.21774 0.20599 0.0712 0.0635 0.12669 0.0672 0.19397 0.13473 0.0673 0.0672 0.12273 0.0712 0.15836 0.11089 0.0357 0.0397 0.11482 0.023 0.18607 0.0397 0.0712 0.023 0.1148 0.0474 0.19398 9e-3 0.0712-0.0396-0.0158-0.13847-0.0673-0.13072-0.0515 3e-3 -0.0673 0-0.10293-0.0951-0.0276-0.0911-0.0436-0.0871-0.13462-0.0911-0.0831-9e-3 -0.16232-0.13473-0.2336-0.18616-0.0712-0.0554-0.19397-0.14651-0.28108-0.21776-0.0831-0.0753-0.13065-0.14652-0.18607-0.15456-0.0515-9e-3 -0.0712-0.0753-0.0791-0.11865-8e-3 -0.0474-0.091-0.10285-0.17024-0.11089-0.0791-0.0172-0.20191-0.12267-0.36422-0.17812-0.17024-0.0474-0.24942-0.12267-0.1148-0.14249 0.1346-0.0201 0.23357 0.0115 0.29296 0.023 0.0594 0.0201 0.091-0.0287 0.19794-0.0437 0.10293-0.0144 0.13066-0.0201 0.19794-0.0595 0.0712-0.0396 0.13066-9e-3 0.15441 0.023 0.0239 0.0356 0.1267 0.0172 0.20587 0.0201 0.0791 9e-3 0.15045 0.0396 0.22567 0.0316 0.0712-0.0172 0.194 3e-3 0.27711 0.0474 0.0871 0.0356 0.15439 0.0356 0.25336 0.083 0.099 0.0437 0.18211 0.12669 0.27315 0.16633 0.0871 0.0356 0.0158 0.0712 8e-3 0.12268-0.0158 0.0554 0.0158 0.0356 0.095 0.083 0.0673 0.0437 0.1148 0.11865 0.14649 0.15054 0.0316 0.0356 0.0436 0.0396 0.0436 0.10687 0 0.0672 0.0791 0.0396 0.10294 0.0555 0.0276 0.023 0.0475 0.083 0.0475 0.083s0.0594 0.0474 0.0673 0.0911c8e-3 0.0474 0.0436 0.0474 0.091 0.10687 0.0475 0.0632 0.0554 0.0991 0.091 0.16232 0.0396 0.0595 0.0871 0.0911 0.11086 0.14651 0.0198 0.0555 0.0555 0.10687 0.0555 0.1899 0 0.0793 0.0712 0.0201 0.0276 0.0951-0.0476 0.0753-0.0634 0.0316-0.15442 0.0437-0.10293 0.0201-0.11876-9e-3 -0.15042 0.0554-0.0396 0.0555-0.0554 0.0356-0.1069 0.0635-0.0554 0.0316-0.095 0.0951-0.15835 0.079-0.0594-0.0172-0.0594-0.0316-0.12273 3e-3 -0.0594 0.0396-0.0436 0.0396-0.13459 0.0555-0.087 0.0115-0.16232-0.0316-0.26919 0-0.1069 0.0287-0.26129-0.023-0.40381-0.0555-0.14252-0.0287-0.37609-3e-3 -0.50278 0-0.12669 0.0115-0.26921-0.10285-0.36026-0.14249-0.091-0.0356-0.091-0.0871-0.23356-0.19794-0.14253-0.1109-0.24546-0.16232-0.36818-0.24535-0.1148-0.079-0.23753-0.16231-0.28505-0.21374-0.0436-0.0554-0.0713-0.13071-0.12273-0.23356-0.0554-0.10285-0.1069-0.15054-0.14648-0.21374-0.0357-0.0712-0.091-0.11491-0.13063-0.17812-0.0316-0.0554 0-0.13473 0.0198-0.19391m5.6018-4.0064c-0.10293 0.11864-0.15439 0.18616-0.25336 0.26918-0.1069 0.083-0.23753 0.21776-0.30087 0.26919-0.0634 0.0474-0.095 0.12669-0.11483 0.17036-0.0198 0.0437-0.0554 0.0201-0.15438 0.0753-0.091 0.0595-0.16232 0.083-0.24546 0.15054-0.091 0.0595-0.13459 0.0991-0.20983 0.14651-0.0712 0.0554-0.0515 0.0595-0.19794 0.0672-0.14649 3e-3 -0.22567-9e-3 -0.3563 0.0316-0.13856 0.0396-0.1069 0.0437-0.24546 0.0115-0.13066-0.0316-0.34838 0.0172-0.3563 0.0911-4e-3 0.0753-0.0396 0.0793-0.099 0.0713-0.0594-0.0172-0.25335-0.0287-0.3365-0.0474-0.0831-0.0172-0.14253 0-0.18608 0.0316-0.0436 0.0316-0.12669 0.0201-0.2019 0.0144-0.0752-9e-3 -0.0633 3e-3 -0.12273-0.0474-0.0594-0.0514-0.16628-9e-3 -0.24149 0-0.0752 9e-3 -0.0515-0.0437-0.17815-0.0356-0.12669 9e-3 -0.24149 0-0.31671-0.0316-0.0831-0.0316-0.12273-0.10285-0.22963-0.0911-0.11086 0.0115-0.0791-0.0201-0.12669-0.0672-0.0515-0.0437-0.0791 0.0172-0.12273-0.0514-0.0436-0.0753-0.0752-0.11491-0.0554-0.17409 0.0316-0.0595 0.11877-0.0437 0.21377-0.10285 0.095-0.0555 0.23753-0.0753 0.29692-0.14249 0.0673-0.0595 0.15442-0.0474 0.21773-0.12267 0.0673-0.0753 0.0791-0.083 0.0791-0.083s0.0118-0.0201 0.1069 9e-3c0.095 0.023 0.22963 0.0672 0.32463 0.023 0.095-0.0437 0.19004-0.0201 0.29692-0.0115 0.095 3e-3 0.27711 0.0316 0.37214 0.0115 0.095-0.0201 0.34442 0.023 0.43548 0.0115 0.099-0.0115 0.21377 0 0.30087-0.0514 0.091-0.0514 0.11877-0.0356 0.20191-0.0635 0.087-0.0287 0.13065-0.0437 0.22169-0.0753 0.091-0.0316 0.11877 0.023 0.17025-0.0712 0.0475-0.0991-0.0198-0.13847-0.21773-0.13071-0.19797 3e-3 -0.28108 0.0287-0.35631-0.0316-0.0752-0.0514-0.0752-3e-3 -0.2217-0.023-0.14649-0.0172-0.22566-0.0172-0.38797-0.023-0.16628-3e-3 -0.27712-3e-3 -0.40381-0.0287-0.1267-0.0172-0.20984-0.0287-0.26919 9e-3 -0.0633 0.0356-0.13066 0.0287-0.17025 0.0201-0.0357-3e-3 -8e-3 -0.0911-0.12669-0.0514-0.11876 0.0396-0.1069 0.0474-0.19397 0.0514-0.091 9e-3 -0.13856 0.0115-0.19398 0.0793-0.0476 0.0632-0.0633 0.12267-0.12669 0.087-0.0633-0.0396-0.26525 0.0871-0.17421-0.0437 0.0436-0.0514 0.0673-0.0871 0.16231-0.15427 0.095-0.0635 0.17815-0.10285 0.27318-0.21776 0.095-0.11492 0.17025-0.13445 0.29296-0.19794 0.12273-0.0635 0.12273-0.0753 0.20983-0.13847 0.0871-0.0635 0.11876-0.0396 0.23359-0.083 0.11877-0.0437 0.1069 0 0.22567-0.0595 0.11876-0.0554 0.15438-0.0991 0.23359-0.0554 0.0831 0.0437 0.21377 0.0396 0.31275 0.0287 0.10293-0.0115 0.21773 0.0115 0.32463-0.0437 0.10689-0.0635 0.24545-0.0672 0.27315 0 0.0276 0.0595 0.17024 0.0554 0.32067 0.0144 0.14649-0.0356 0.27712 0.0287 0.38797 0.0793 0.1069 0.0474 0.34443 0.11089 0.4434 0.16232 0.10294 0.0514 0.19398 0.0474 0.26525 0.083 0.0673 0.0396 0 0.0514 0.091 0.14652 0.099 0.0991 0.2415 0.13071 0.30484 0.17409 0.0673 0.0437 0 0.0474-0.099 0.16232"/>
   <path d="m113.32 156.26c-0.1267 0.0474-0.29296-0.023-0.48695-0.0115-0.194 0.0115-0.37609 3e-3 -0.4909 3e-3 -0.11876 0-0.194 9e-3 -0.26525 0.0316-0.0713 0.023-0.0713-0.0316-0.099-0.0554-0.0436-0.0201-0.19004-0.0201-0.26128-3e-3 -0.0713 0.0172-0.1069 0.0172-0.19004 0.0172-0.0831 0-0.2217-0.0115-0.32068-3e-3 -0.0949 3e-3 -0.13063-0.0115-0.24942 0.0144-0.11876 0.0316-0.24942 0.023-0.32463 0.0201-0.0791-3e-3 -0.11086-0.0356-0.17817-0.023-0.0712 0.0115-0.27712 0.0115-0.33255 0.0115-0.0633 0-0.19004-0.0201-0.26525-9e-3 -0.0752 0.0172-0.091 9e-3 -0.0633-0.0635 0.0198-0.0712 4e-3 -0.0356 8e-3 -0.20598 4e-3 -0.17036 0.0118-0.11089 0-0.26517-8e-3 -0.15053 0-0.13473 0.0239-0.22551 0.0238-0.0911 0.0198-0.0991-8e-3 -0.22955-0.0198-0.12669 0.0475-0.10687 0.1069-0.12267 0.0673-0.0201 0.0791-0.0287 0.14252-0.0316 0.0673-3e-3 0.0752-0.0316 0.13066-0.0316 0.0515 0 0.0831 0.0437 0.12273-0.0115 0.0396-0.0595 0.0673-0.0793 0.12669-0.0793 0.0594 0 0.16628-0.0396 0.21774-0.0396 0.0515 0 0.11479-0.0115 0.15042-0.0595 0.0436-0.0474 0.1069-0.0672 0.17814-0.0514 0.0712 0.0115 0.10294-0.0712 0.17025-0.14249 0.0633-0.0672 0.0475-0.0911 0.0316-0.16232-0.0238-0.0712-0.0515-0.11491-0.13459-0.22552-0.091-0.10285-0.0276-0.13474-0.0276-0.24534 0-0.10687 0.0198-0.0635 0-0.16232-0.0158-0.0991-0.0316-0.11089-0.0831-0.17036-0.0515-0.0595 0.0357-0.023 0.0276-0.0793-8e-3 -0.0514-8e-3 -0.0911-0.0554-0.17036-0.0515-0.083-0.0594-0.083-0.0871-0.12267-0.0316-0.0437 0.0118-0.0356 0.0158-0.11089 8e-3 -0.0713-0.0198-0.0753-0.0594-0.13847-0.0357-0.0632 0.0396-0.0474-0.0276-0.10687-0.0633-0.0555-0.0357-0.0871-0.0276-0.13474 4e-3 -0.0474-8e-3 -0.083-0.0238-0.13474-0.0118-0.0514-0.0515-0.15427-0.091-0.17007-0.0436-0.0172-0.0673 0.0316-0.13462 0.0514-0.0752 0.0287-0.12273 0-0.2019 0.0287-0.0752 0.0201-0.0475 0.0437-0.0752 0.0474-0.0316 9e-3 -0.0594 0-0.10294 0.0316-0.0396 0.0316-0.0831-0.0201-0.1148 0.023-0.0357 0.0474-0.0712 0.0396-0.11876 0.0474-0.0476 3e-3 -0.0594-0.0753-0.091-0.0396-0.0357 0.0437-0.0791 0.0396-0.15439 0.0514-0.0752 0.0115-0.0634-0.0712-0.0791-0.1425-0.0238-0.0672-0.0396-0.12267-0.0673-0.20196-0.0276-0.087-0.0871-0.10285-0.13066-0.17036-0.0515-0.0712-0.1069-0.15054-0.18211-0.22954-0.0752-0.083-0.0515-0.0951-0.1148-0.14249-0.0633-0.0474 0.13856-0.20196 0.0871-0.24161-0.091-0.0712-0.11876-0.023-0.24149-0.12669-0.0515-0.0514-0.1267-0.0555-0.17421-0.0595-0.0475-3e-3 -0.0673 0.0316-0.0396-0.0172 0.0316-0.0474 0.0515-0.11865 0.1148-0.11865s0.12273-0.11865 0.2019-0.15053c0.0831-0.0396 0.1069-0.0911 0.1148-0.22955 4e-3 -0.13847-0.0316-0.13473-0.0831-0.20971-0.0475-0.079-0.0436-0.0991-0.0673-0.18214-0.0316-0.083-0.0555-0.0951-0.10687-0.11865-0.0515-0.023-0.0673-0.0713-0.13066-0.13072-0.0633-0.0595-0.12273-0.0753-0.18211-0.12267-0.0475-0.0437-0.091-0.0554-0.17024-0.0396-0.0752 0.0201-0.0476-0.0396-0.1069-0.0514-0.0555-0.0201-0.15835-0.0356-0.17815 0.0287-0.0276 0.0635-0.0831 0.0595-0.16628 0.12669-0.0871 0.0712-0.0515 0.0595-0.0871 0.1583-0.0357 0.10285-0.10293 0.083-0.16628 0.12669-0.0633 0.0396-0.0673 0.0356-0.0871 0.13474-0.0238 0.0951-0.0396 0.0595-0.0752 0.16231-0.0396 0.1109-0.0436 0.11492-0.0396 0.22955 8e-3 0.11864 0.0396 0.0437 0.0475 0.15053 4e-3 0.11492 0.0357 0.1267 0.0555 0.21374 0.0198 0.0871 0.0515 0.0951 0.12669 0.13474 0.0752 0.0437-0.0712 0.0437-0.11876 0.083-0.0476 0.0396-0.0476 0.0514-0.0476 0.11491 0 0.0632-0.0158 0.0632-0.0673 0.10285-0.0555 0.0316-0.0555 0.0316-0.10294 0.10687-0.0436 0.0793-0.0831 0.0672-0.13855 0.14651-0.0594 0.0871-0.091 0.0672-0.14253 0.10285-0.0515 0.0356-0.0633 0.0753-0.0791 0.13847-8e-3 0.0635 0.0238 0.0474-8e-3 0.1425-0.0276 0.0911-0.0791 0.0991-0.14252 0.24161-0.0633 0.14249-0.0752 0.27723-0.10293 0.37608-0.0316 0.0991-0.0475 0.0911-0.0634 0.16634-0.0198 0.079 0.0396 0.0396 0.0673 0.11491 0.0276 0.0672-0.0357 0.0632-0.0673 0.0672-0.0357 9e-3 -0.0673 0-0.13856 0.0632-0.0712 0.0635-0.18211 0.0712-0.21773 0.0595-0.0396-0.0172-0.1148 0.0115-0.16232 0.0474-0.0515 0.0356-0.095 0.0635-0.17024 0.0474-0.0713-0.023-0.10294 0.0316-0.15836 0.1583-0.0633 0.12267-0.0198 0.11865-0.0158 0.21374 8e-3 0.0911 0.0752 0.0712 0.15836 0.0871 0.0791 0.0115 0.14252 0.0514 0.22962 0.0753 0.0831 0.023 0.33652-0.023 0.40778-0.0201 0.0673 3e-3 0.15835-0.0356 0.20983-0.083 0.0476-0.0396 0.0396-0.0115 0.091 0.0555 0.0515 0.0712 0.0276-0.0595 0.091-0.0437 0.0634 0.0201 0.0357 0.0356 0.0634 0.13474 0.0238 0.0988-0.0158 0.0753-0.0316 0.16231-0.0158 0.0871-0.0396 0.079-0.0555 0.15054-0.0198 0.0712-0.0475 0.0474 0 0.14652 0.0475 0.10284-8e-3 0.0287 8e-3 0.13473 0.0118 0.0595-4e-3 0.0911-0.0396 0.1583-0.0475 0.0753-0.0475 0.11089-0.0515 0.22178s-0.0118 0.079-0.0158 0.1741c-0.0118 0.0911-0.0555 0.13847-0.099 0.21374-0.0396 0.0712-0.0554 0.0474 0 0.13473 0.0634 0.0871-0.0198 0.083-0.0357 0.16232-0.0118 0.0753-0.0238 0.22954-4e-3 0.34443-0.0791 0.0287-0.10294 0.0172-0.18211 0.0753-0.0831 0.0554-0.16232 3e-3 -0.22566-0.0172-0.0633-0.0144-0.0713-0.0595-0.11877-0.0316-0.0436 0.0201-0.0871 0.0287-0.11083 0.0172-0.0276-0.0115-0.1267 0.0144-0.18211 0.0287-0.0594 3e-3 -0.0515 0.0316-0.0633 0.11492-0.0158 0.079 0.0436 0.079 0.0673 0.11865 0.0316 0.0356 0.0633 0.0753 0.1148 0.14249 0.0554 0.0672 0.0554 0.083 0.087 0.12669 0.0396 0.0437 4e-3 0.0713 4e-3 0.10687 0 0.0316 8e-3 0.0437 0.0436 0.0753 0 0 0.0198 0.0144 0.0198 0.0287 0 0 0.15836-0.0437 0.19794-0.023 0.0316 0.023 0.0396 0.0514 0.10294 0 0.0633-0.0474 0.0791-0.0356 0.18607-0.0287 0.1069 0.0144 0.14253-0.0201 0.25733-0.0474 0.11083-0.023 0.4038-0.0172 0.51862-0.0172 0.11479 0 0.16231-9e-3 0.30878-0.0287 0.15045-0.0144 0.28901-0.0287 0.35631-0.0287 0.0713 0 0.0594 0.023 0.14252 0.0397 0.091 0.0201 0.11087-9e-3 0.26129 0.0172 0.14649 0.0172 0.30088 0.0201 0.46319 0 0.16232-0.0287 0.29692 0.0316 0.40778 3e-3 0.1148-0.0287 0.0515 0.0115 0.12669 0.0437 0.0712 0.0316 0.11876-0.0437 0.22963-0.0474 0.11086-9e-3 0.27315-0.023 0.37609 3e-3 0.099 0.0287 0.24942 0.0316 0.36819 0.0396 0.11876 3e-3 0.16231 0 0.25335 0.0115 0.095 9e-3 0.0752 0.0356 0.15043 0.0437 0.0791 3e-3 0.0712-0.0396 0.13855-0.0437 0.0673-9e-3 0.0634 3e-3 0.12273 3e-3 0.0633 0 0.18211-0.0396 0.24942-0.0115 0.0555 0.023 0.12273 9e-3 0.21377 0.0144 0.095 0.0172 0.26525 0.023 0.3563 9e-3 0.095-0.0115 0.29296 0.0201 0.41173 0.0514 0.11876 0.0316 0.37214 0.0396 0.47903 0.0632 0.10294 0.023 0.11084-0.0115 0.091-0.0555-0.0158-0.0396-8e-3 -0.0595 8e-3 -0.0951 0.0158-0.0356 0.0515-0.0316 0.1069-0.079 0.0633-0.0477 0.0712-0.0554 0.091-0.0911 8e-3 -0.0356 0.0396-0.0911 0.0673-0.10687 0.0198-0.0201 0.0712-0.0632 0.14649-0.0951 0.0752-0.0287 0.0594-0.0396 0.0712-0.0988 8e-3 -0.0595 0.0316-0.0991 0.0752-0.1899 0.0396-0.087-0.099-0.11491-0.21774-0.0672m-5.495-5.4593c0.0238-0.0201 0.0633-0.0356 0.0752-0.0514 0.0158-0.0144 0.0594-0.0753 0.0752-0.0991 0.0118-0.023 0.0238-0.0396 0.0475-0.0672 0.0238-0.0316 0.0357-0.0474 0.0396-0.083 8e-3 -0.0356-4e-3 -0.0712 0.0276-0.0635 0.0276 9e-3 0.0396 0.0287 0.091 0.0115 0.0475-0.023 0.0594-0.0316 0.091-0.023 0.0357 3e-3 0.0476 0.0172 0.0752 0.0514 0.0316 0.0356 0.0357 0.0514 0.0357 0.083 0 0.0287 0.0118 0.0753 0.0396 0.11491 0.0316 0.0437 0.0316 0.10285 0.0752 0.0951 0.0396-3e-3 0.0476-9e-3 0.0673 0.0514 0.0198 0.0595 0.0118 0.0712 0.0118 0.11491 0 0.0514-8e-3 0.079-0.0396 0.10285-0.0239 0.023-0.0476 0.0316-0.0594 0.079-0.0239 0.0437-0.0239 0.083-0.0396 0.11492-0.0198 0.0316-0.0198 0.0595-0.0594 0.0514-0.0436-0.0115-0.0831 3e-3 -0.10294 0.0356-0.0158 0.0316-0.0276 0.0712-0.0752 0.0356-0.0515-0.0356-0.0752-0.0672-0.11086-0.0991-0.0357-0.0356-0.0752-0.0712-0.1148-0.083-0.0357-0.0115-0.0752-9e-3 -0.0594-0.0514 8e-3 -0.0514 0.0118-0.0595-0.0276-0.0951-0.0475-0.0356-0.0158-0.0554-0.0515-0.0753-0.0158-0.023-0.0276-0.0316-0.0316-0.0712-8e-3 -0.0396-8e-3 -0.0595 0.0198-0.0793m1.3658 4.9803c-0.0316 0.10285 0 0.10687-0.0316 0.17812-0.0239 0.0672 0 0.10285-0.0198 0.18214-0.0198 0.079-0.0158 0.12669-0.0633 0.19794-0.0515 0.0753-0.0555-0.0437-0.13066-0.023-0.0752 0.0172-0.13063 0.023-0.17418-3e-3 -0.0436-0.0316-0.0276-0.0635-0.1069-0.0437-0.0831 0.0172-0.0871 3e-3 -0.18608 0.0437-0.099 0.0316-0.12669-0.0201-0.19794 0-0.0633 0.0172-0.15042-0.0287-0.24942 3e-3 -0.099 0.0287-0.1148-0.023-0.17421-0.0316-0.0554-3e-3 -0.0357-0.0712-0.12273-0.0514-0.091 0.0201-0.17814-0.023-0.26918-3e-3 -0.0476 9e-3 -0.095 9e-3 -0.14253 9e-3 0.0316-0.0793 0.0594-0.27723 0.0594-0.3286 0-0.0555-8e-3 -0.0871 8e-3 -0.23356 0.0198-0.15428 0.0198-0.1425-4e-3 -0.25339-0.0276-0.11089-0.0118-0.12267-0.0396-0.21776-0.0238-0.0951-8e-3 -0.1425 0.0118-0.21776 0.0238-0.0753 0.0436-0.0672 0.0357-0.11865-4e-3 -0.0514 8e-3 -0.087 0.0476-0.1583 0.0357-0.083 0.0515-0.13847 0.0396-0.2258-4e-3 -0.083 0-0.083 0.0594-0.17812 0.0554-0.0911 0.0316-0.1425 0.0673-0.22179 0.0357-0.083-0.0158-0.10284-0.0752-0.17036-0.0673-0.0712-0.0752-0.15053-0.13063-0.20196-0.0515-0.0474-0.0276-0.0871-0.0276-0.0871l-0.0276-0.0991s-0.0158-0.10687-0.0238-0.13474c-4e-3 -0.0316-0.0396-0.079-0.0238-0.11491 8e-3 -0.0396 0.0475-0.0514 0.0515-0.11491 8e-3 -0.0595 8e-3 -0.11492 0.0396-0.17812 0.0316-0.0635 0.0118-0.0753 0.0316-0.17812 0.0198-0.0991-0.0198-0.0753-4e-3 -0.17812 8e-3 -0.10284 8e-3 -0.12669 0-0.20598-0.0158-0.083 4e-3 -0.0753 0.0752-0.0948 0.0633-0.0172 0.087-0.0672 0.15045-0.11492 0.0673-0.0514 0.0673-0.0635 0.13856-0.0951 0.0673-0.0287 0.0594-0.083 0.15042-0.10687 0.091-0.0287 0.1069-0.0595 0.194-0.0635 0.091-9e-3 0.13066-0.0356 0.24149-0.0316 0.1148 9e-3 0.1267 0.0632 0.15836 0.10285 0.0276 0.0356 0.099 0.0712 0.16231 0.10687 0.0633 0.0287 0.0752 0.10284 0.091 0.20971 8e-3 0.10688 0.0276 0.13072 0.0555 0.22955 0.0239 0.10284 0.0515 0.11865 0.0673 0.21374 0.0118 0.0951 0.0198 0.13071 0.0673 0.21776 0.0515 0.087 0.0515 0.0514 0 0.0753-0.0475 0.023-0.099 9e-3 -0.21773 0.0632-0.11876 0.0555-0.12669 0.0437-0.18607 0.10285-0.0634 0.0632-0.11084 0.0753-0.20191 0.0948-0.091 0.0201-0.0515 0.0396-0.12273 0.10687-0.0752 0.0713-0.12273 0.0555-0.13856 0.1425-0.0158 0.0871 0.091 0.0554 0.1267 0.11089 0.0276 0.0595-0.0198 0.11865-0.0276 0.22954-8e-3 0.10285 0.0198 0.0396 0.0554 0.0911 0.0396 0.0474 0.0475 0.0753 0.0515 0.17007 4e-3 0.0911 0.0158 0.0635 0.0594 0.11865 0.0436 0.0554 0.0436 0.0396 0.0515 0.11865 4e-3 0.0793 0.0276 0.0635 0.0436 0.11894 0.0198 0.0474-8e-3 0.0871 0.0515 0.19392 0.0633 0.10284 0.0316 0.15829 0.0515 0.28498 0.0118 0.1267 0.0316 0.13072 0.0396 0.24937 0.0158 0.11865 0.0515 0.087 0.0871 0.15427 0.0396 0.0712-0.0118 0.0753 0.0475 0.15054 0.0555 0.0753 0.0198 0.12669 0.0555 0.20196 0.0396 0.0753 0.0555 0.023 0.11084 3e-3 0.0594-0.0201 0.10689-0.0635 0.24149-0.0951 0.13066-0.0287 0.0752 0 0.0436 0.0991m0.45924-0.91848c-0.099 0.0316-0.13462 0.0396-0.20191 0.0951-0.0673 0.0514-0.0594 0-0.15835 0.0437-0.099 0.0474-0.11876 0.16232-0.17814 0.0287-0.0594-0.13445-0.0713-0.19794-0.099-0.29691-0.0276-0.10285-8e-3 -0.10687-0.0791-0.16232-0.0712-0.0514-0.0791-0.0911-0.0791-0.14651 0-0.0474-0.0316-0.0316-0.0357-0.13847-8e-3 -0.10285 0-0.0672-0.0712-0.1583-0.0752-0.0911-0.0831-0.0753-0.091-0.17811-0.0158-0.10687 0.0357-0.0287-0.0436-0.16634 0.0594-0.0396 0.0673-0.0514 0.1267-0.0514 0.0633 0 0.095 0.0316 0.12273-0.0287 0.0238-0.0632 4e-3 -0.0672 0.0673-0.0753 0.0554-9e-3 0.0554 0.0396 0.11083 9e-3 0.0515-0.0316 0.0712-0.0316 0.087-0.0635 0.0238-0.0356 0.0555-0.0911 0.0831-0.0514 0.0239 0.0396 0.095 0.083 0.1069 0.17409 8e-3 0.0951 0.0276 0.1267 0.0316 0.19392 8e-3 0.0672 0.0276 0.10687 0.0158 0.20599-0.0158 0.0991-0.0791 0.11089 0.0158 0.18989 0.10294 0.0793 0.19398 0.1741 0.29296 0.0911 0.10293-0.0911 0.11876-0.0514 0.15835-0.12669 0.0396-0.0672 0.0752-0.11492 0.0791-0.18214 8e-3 -0.0672 0-0.13474-4e-3 -0.19018-8e-3 -0.0632-0.0158-0.11492-0.0357-0.15428-0.0158-0.0437-0.0515-0.0356-0.0436-0.083 4e-3 -0.0477 4e-3 -0.0635-0.0633-0.10285-0.0634-0.0396-0.0515-0.0474-0.0515-0.11865 0-0.0753-0.0396-0.13847 0-0.13474 0.0396 9e-3 0.091 0.0514 0.16628 0.0356 0.0752-0.023 0.095 0.0172 0.15835-0.0396 0.0673-0.0635 0.12273-0.0437 0.2019-0.0635 0.0791-0.0201 0.0594 0.0356 0.0831 0.10285 0.0276 0.0672-4e-3 0.0595 0.0476 0.18616 0.0555 0.12267 0.0396 0.13474 0.091 0.21776 0.0436 0.0793-0.0198 0.0514 0.0316 0.1109 0.0436 0.0635 0.0713 0.0477 0.0831 0.13847 0.0118 0.0951 8e-3 0.0951 0.0316 0.18214 0.0276 0.087 0.0198 0.0951 0.0634 0.19794 0.0436 0.10285 0.091 0.11865-0.0198 0.19392-0.1148 0.0712-0.14649 0.0911-0.22567 0.0991-0.0791 9e-3 -0.14648 0.0316-0.20586 0.0632-0.0594 0.023-0.1069 0.0555-0.18211 0.0635-0.0712 0.0201-0.0831 0.0316-0.17421 0.0316-0.099 0-0.1148 0.0287-0.21377 0.0595"/>
  </g>
  <g fill="#ae8904">
   <path d="m85.737 159.88h5.5979v5.5979h-5.5979z"/>
   <path d="m113.72 159.88h5.5979v5.5979h-5.5979z"/>
   <path d="m85.737 131.9h5.5979v5.5979h-5.5979z"/>
   <path d="m113.72 131.9h5.5979v5.5979h-5.5979z"/>
   <path d="m102.52 125.14 3.955 3.951-3.955 3.9628-3.947-3.9628z"/>
   <path d="m102.52 164.33 3.955 3.951-3.955 3.9628-3.947-3.9628z"/>
   <path d="m82.942 144.75 3.9549 3.951-3.9549 3.9589-3.947-3.9589z"/>
   <path d="m122.11 144.75 3.9549 3.951-3.9549 3.9589-3.951-3.9589z"/>
  </g>
  <g fill="#0b3b6a">
   <path d="m24.101 152.66h1.4133v-9.7072h3.6145v-1.2035h-8.6423v1.2035h3.6145z"/>
   <path d="m30.083 152.66h1.3144v-7.9218h-1.3144z"/>
   <path d="m34.66 152.66h5.0278v-1.1045h-3.7095v-6.8173h-1.3183z"/>
   <path d="m43.694 148.04h-1.2946v-2.1972h1.4094c1.0531 0 1.4292 0.27321 1.4292 1.0491 0 0.37612-0.14252 0.70075-0.3959 0.91056-0.289 0.21776-0.37214 0.23758-1.1481 0.23758m0.41964 3.5155h-1.7142v-2.411h2.0349c0.22566 0 0.46319 0.083 0.66905 0.23758 0.28108 0.20196 0.44736 0.56613 0.44736 0.97787 0 0.4315-0.21377 0.83134-0.54237 1.0214-0.27315 0.1583-0.34442 0.1741-0.89471 0.1741m-3.0325 1.1045h3.3532c1.4688 0 2.4981-0.89473 2.4981-2.1695 0-0.97387-0.58196-1.73-1.5163-1.9715l-0.07125-0.0201 0.07125-0.0287c0.70073-0.2416 1.156-0.93431 1.156-1.7617 0-1.3064-0.867-1.9715-2.5654-1.9715h-2.9256z"/>
   <path d="m49.03 144.74v4.6834c0 1.5875 0.32067 2.3912 1.1481 2.8702 0.60967 0.36422 1.5004 0.59778 2.2685 0.59778 0.73636 0 1.6429-0.2416 2.2526-0.59778 0.83929-0.49485 1.1679-1.2985 1.1679-2.8702v-4.6834h-1.3025v4.8972c0 1.4173-0.7126 2.1339-2.118 2.1339s-2.118-0.71658-2.118-2.1339v-4.8972z"/>
   <path d="m61.058 148.36h-1.1956v-2.5099h1.1956c0.89867 0 0.98973 0.0144 1.2471 0.20599 0.30484 0.22552 0.45923 0.56612 0.45923 1.0095 0 0.41966-0.12669 0.72051-0.41173 0.9739-0.33255 0.28498-0.47903 0.32066-1.2946 0.32066m1.9517 4.3073h1.5281l-2.1734-3.3136 0.03562-3e-3c1.0649-0.21776 1.7815-1.156 1.7815-2.3358 0-1.4608-1.0491-2.2684-2.9573-2.2684h-2.6802v7.9218h1.3183v-3.2028h1.0808l4e-3 9e-3z"/>
   <path d="m70.313 144.61c-2.6248 0-4.6002 1.7498-4.6002 4.0737 0 2.3595 2.027 4.141 4.7151 4.141 0.63342 0 1.5875-0.12267 2.3239-0.29694 0.11084-0.023 0.26129-0.0672 0.45131-0.12669l0.21377-0.0595v-3.6382h-1.3183v2.8583l-0.0158 3e-3c-0.70469 0.11865-1.057 0.15427-1.4608 0.15427-2.0111 0-3.5274-1.3341-3.5274-3.1038 0-1.6627 1.3975-2.9177 3.2503-2.9177 0.57404 0 1.3223 0.15054 1.8567 0.37212 0.1148 0.0474 0.29692 0.15054 0.53841 0.29298l0.03166 0.0201 0.55821-1.0966-0.02758-0.0172c-0.52654-0.26918-0.76803-0.37608-1.1758-0.47902-0.47903-0.10687-1.2273-0.18214-1.8132-0.18214"/>
   <path d="m131.71 141.75v7.1617c0 1.4252 0.36817 2.308 1.2748 3.0484 0.81158 0.66116 1.8528 1.0135 3.0127 1.0135 1.1679 0 2.1734-0.34046 2.9929-1.0135 0.91055-0.74031 1.2629-1.5954 1.2629-3.0484v-7.1617h-1.4173v6.7539c0 1.346-0.099 1.7102-0.61364 2.2764-0.54237 0.60175-1.3144 0.92242-2.2407 0.92242-0.92638 0-1.7023-0.32067-2.2407-0.92242-0.51862-0.56613-0.6176-0.93035-0.6176-2.2764v-6.7539z"/>
   <path d="m149.02 152.76h1.1837v-8.0168h-1.1996v5.9502l-0.0475 0.0115c-0.0555-0.13071-0.13066-0.26114-0.20587-0.36422l-4.4459-5.5979h-1.2985v7.9218h1.2193v-6.0175l0.0436-0.0115c0.0634 0.11491 0.15439 0.24936 0.30484 0.44736z"/>
   <path d="m153.23 152.66h1.3144v-7.9218h-1.3144z"/>
   <path d="m159.84 152.86h0.70468l3.3968-8.1158h-1.4252l-2.2051 5.685c-0.0158 0.0316-0.0316 0.0595-0.0396 0.087l-0.0238 0.0555-0.0198-0.0555c-0.0118-0.0287-0.0238-0.0554-0.0357-0.083l-2.3753-5.689h-1.4212z"/>
   <path d="m165.81 152.66h5.0278v-1.1045h-3.7095v-2.411h2.985v-1.1045h-2.985v-2.1972h3.6105v-1.1046h-4.9288z"/>
   <path d="m175.85 148.33h-1.1718v-2.4624h1.1718c0.89076 0 0.98181 0.0172 1.2312 0.20196 0.30088 0.22179 0.45132 0.55426 0.45132 0.98973 0 0.41174-0.12669 0.70865-0.40777 0.95807-0.32463 0.27723-0.46714 0.31274-1.2748 0.31274m1.3064 1.0174 0.0316-3e-3c1.0689-0.21776 1.7855-1.156 1.7855-2.3358 0-1.4608-1.0531-2.2684-2.9613-2.2684h-2.6762v7.9218h1.3144v-3.2027h1.0808l8e-3 9e-3 2.0626 3.1948h1.5281z"/>
   <path d="m180.52 151.95 0.0276 0.0172c0.57008 0.35236 0.79969 0.46319 1.1243 0.59385 0.45528 0.16231 1.0174 0.24936 1.6192 0.24936 1.8092 0 2.894-0.8472 2.894-2.2684 0-0.98182-0.47903-1.5321-1.9755-2.2645-1.4925-0.72447-1.7776-0.87886-2.0072-1.2194-0.0594-0.087-0.091-0.22954-0.091-0.39192 0-0.58592 0.58987-0.93431 1.5756-0.93431 0.40777 0 0.73239 0.0474 1.0927 0.16232 0.38005 0.11089 0.55425 0.18616 0.97389 0.47112l0.0357 0.023 0.47112-1.1006-0.0276-0.0172c-0.50278-0.26918-0.69677-0.36422-1.057-0.46319-0.43945-0.13071-0.94619-0.19794-1.4727-0.19794-1.7578 0-2.894 0.85114-2.894 2.1695 0 0.8591 0.56217 1.5242 1.7617 2.1022l1.4292 0.68886c0.61759 0.29294 0.867 0.62154 0.867 1.1322 0 0.63737-0.53446 1.0174-1.4292 1.0174-0.4236 0-0.87888-0.0911-1.2827-0.25741-0.30483-0.13071-0.51466-0.25741-1.0095-0.62154l-0.0316-0.023z"/>
   <path d="m188.65 152.66h1.3183v-7.9218h-1.3183z"/>
   <path d="m194.56 152.66h1.2985v-6.8172h2.791v-1.1046h-6.8845v1.1046h2.795z"/>
   <path d="m201.82 152.66h1.2985v-3.5314l3.0405-4.3904h-1.5321l-2.0507 3.175-2.0507-3.175h-1.5281l2.8187 4.3746z"/>
  </g>
 </g>
</svg>
